<?xml version="1.0" encoding="UTF-8" standalone="no"?>
<svg
    xmlns:svg="http://www.w3.org/2000/svg"
    xmlns="http://www.w3.org/2000/svg"
    viewBox="0 0 210 185"
    width="210"
    height="185">
  <defs>
    <g id="empty-data-collection" viewBox="0 0 210 185">
      <path
          d="m 169.856,185 h -130 a 5,5 0 0 1 0,-10 h 5 a 5,5 0 1 0 0,-10 H 5 a 5,5 0 1 1 0,-10 h 73.189 l -1.067,8 h -2.766 a 7.5,7.5 0 1 0 0,15 h 61 a 7.5,7.5 0 1 0 0,-15 h -2.767 l -1.066,-8 h 73.478 a 5,5 0 0 1 0,10 h -40.145 a 5,5 0 0 0 0,10 h 5 a 5,5 0 1 1 0,10 z"
          style="fill:#def6f1;fill-opacity:1" />
      <path
          d="m 14.858,0 c -2.7601,0 -4.997,2.24 -5,5 v 136.5996 c 0,2.7598 2.2401,4.996 5,5 H 82.4517 L 80.0689,166 H 74.358 c -6,0 -6,9 0,9 h 61 c 6,0 6,-9 0,-9 h -5.7129 l -2.3809,-19.4004 h 67.5938 c 2.7598,0 4.996,-2.2402 5,-5 V 5 c 0,-2.76 -2.24,-4.997 -5,-5 z m 0,3.0098 h 180 c 1.1046,0 2,0.8954 2,2 v 136.58 c 0,1.1046 -0.8954,2 -2,2 h -180 c -1.1046,0 -2,-0.8954 -2,-2 V 5.0098 c 0,-1.1046 0.8954,-2 2,-2 z m 7,6.7363 c -1.1046,0 -2,0.8954 -2,2 V 43.9375 90.8086 123 c 0,1.1046 0.8954,2 2,2 h 166 c 1.1046,0 2,-0.8954 2,-2 V 90.8105 43.9355 11.7461 c 0,-1.1046 -0.8954,-2 -2,-2 z m 0,2.0039 h 166 v 32.1855 0 46.8711 0 32.1856 h -166 V 90.8047 43.9336 Z M 104.9009,129 c -2.7782,-0.024 -5.043,2.2217 -5.0429,5 0,2.7614 2.2386,5 5,5 2.7614,0.012 5.0096,-2.217 5.0214,-4.9785 0.012,-2.7614 -2.2171,-5.0097 -4.9785,-5.0215 z m -19.4336,17.6016 h 38.7793 c 0,0.049 0.01,0.098 0.012,0.1464 L 126.6219,166 H 83.0907 l 2.3672,-19.252 c 0,-0.049 0.01,-0.098 0.01,-0.1464 z M 74.358,169 h 61 c 2,0 2,3 0,3 h -61 c -0.8284,0 -1.5,-0.6716 -1.5,-1.5 0,-0.8284 0.6716,-1.5 1.5,-1.5 z"
          style="fill:#cecece;fill-opacity:1" />
      <path
          style="fill:#eafaf5;fill-opacity:1"
          d="m 41.856,33 c -1.1046,0 -2,0.8954 -2,2 V 44.6621 46.3379 56 a 2,2 0 0 0 2,2 h 36 a 2,2 0 0 0 2,-2 V 47.457 45.543 35 c 0,-1.1046 -0.8954,-2 -2,-2 z m 0,2 h 36 V 45.9492 47.0508 56 h -36 v -8.1426 -4.7148 z m 5,7 c -1.3333,0 -1.3333,2 0,2 h 9 c 1.3333,0 1.3333,-2 0,-2 z m -0.029,4 a 1.0001073,1.0001073 0 0 0 0.029,2 h 17 a 1,1 0 0 0 0,-2 h -17 a 1,1 0 0 0 -0.029,0 z m 0,4 a 1.0001073,1.0001073 0 0 0 0.029,2 h 26 a 1,1 0 0 0 0,-2 h -26 a 1,1 0 0 0 -0.029,0 z" />
      <path
          d="m 86.856,33 a 2,2 0 0 0 -2,2 v 9 3 9 a 2,2 0 0 0 2,2 h 36 a 2,2 0 0 0 2,-1.998 v -9.004 -2.996 -9.004 a 2,2 0 0 0 -2,-1.998 z m 0,2 h 36 V 45.168 45.832 56 h -36 V 45.832 45.168 Z m 7.9043,10 v 0 a 4,4 0 0 0 -0.2266,0.014 9.92,9.92 0 0 1 -0.012,-0.01 4,4 0 0 0 -2.9863,6.2168 4,4 0 0 0 0.094,0.1367 4,4 0 0 0 0.1,0.1308 4,4 0 0 0 0.098,0.1172 4,4 0 0 0 0.023,0.027 4,4 0 0 0 0.078,0.086 4,4 0 0 0 0.045,0.047 4,4 0 0 0 0.039,0.041 4,4 0 0 0 0.057,0.055 4,4 0 0 0 0.1113,0.1035 4,4 0 0 0 0.031,0.027 4,4 0 0 0 0.072,0.062 4,4 0 0 0 0.1055,0.086 4,4 0 0 0 0.1348,0.1016 4,4 0 0 0 0.2812,0.1835 4,4 0 0 0 5.1641,-0.916 9.92,9.92 0 0 1 0,-0.021 4,4 0 0 0 0.8672,-2.8203 9.92,9.92 0 0 1 0,-0.01 4,4 0 0 0 -0.3145,-1.252 4,4 0 0 0 -0.1465,-0.3027 4,4 0 0 0 -0.082,-0.1465 4,4 0 0 0 -0.1816,-0.2832 4,4 0 0 0 -0.027,-0.039 4,4 0 0 0 -0.072,-0.096 4,4 0 0 0 -0.096,-0.1191 4,4 0 0 0 -0.01,-0.012 4,4 0 0 0 -0.031,-0.037 4,4 0 0 0 -0.08,-0.09 4,4 0 0 0 -0.033,-0.035 4,4 0 0 0 -0.084,-0.086 4,4 0 0 0 -0.033,-0.033 4,4 0 0 0 -0.088,-0.082 4,4 0 0 0 -0.035,-0.033 4,4 0 0 0 -0.023,-0.019 4,4 0 0 0 -0.1387,-0.1192 4,4 0 0 0 -2.6074,-0.8828 z m 10,0 v 0 a 4,4 0 0 0 -0.2266,0.014 9.92,9.92 0 0 1 -0.012,-0.01 4,4 0 0 0 -2.9863,6.2168 4,4 0 0 0 0.094,0.1367 4,4 0 0 0 0.1,0.1308 4,4 0 0 0 0.098,0.1172 4,4 0 0 0 0.023,0.027 4,4 0 0 0 0.078,0.086 4,4 0 0 0 0.045,0.047 4,4 0 0 0 0.039,0.041 4,4 0 0 0 0.057,0.055 4,4 0 0 0 0.1113,0.1035 4,4 0 0 0 0.031,0.027 4,4 0 0 0 0.072,0.062 4,4 0 0 0 0.1055,0.086 4,4 0 0 0 0.1348,0.1016 4,4 0 0 0 0.2812,0.1835 4,4 0 0 0 5.1641,-0.916 9.92,9.92 0 0 1 0,-0.021 4,4 0 0 0 0.8672,-2.8203 9.92,9.92 0 0 1 0,-0.01 4,4 0 0 0 -0.3145,-1.252 4,4 0 0 0 -0.1465,-0.3027 4,4 0 0 0 -0.082,-0.1465 4,4 0 0 0 -0.1816,-0.2832 4,4 0 0 0 -0.027,-0.039 4,4 0 0 0 -0.072,-0.096 4,4 0 0 0 -0.096,-0.1191 4,4 0 0 0 -0.01,-0.012 4,4 0 0 0 -0.031,-0.037 4,4 0 0 0 -0.08,-0.09 4,4 0 0 0 -0.033,-0.035 4,4 0 0 0 -0.084,-0.086 4,4 0 0 0 -0.033,-0.033 4,4 0 0 0 -0.088,-0.082 4,4 0 0 0 -0.035,-0.033 4,4 0 0 0 -0.023,-0.019 4,4 0 0 0 -0.1387,-0.1192 4,4 0 0 0 -2.6074,-0.8828 z m 9.998,0 v 0 a 4,4 0 0 0 -0.2265,0.014 9.92,9.92 0 0 1 -0.012,-0.01 4,4 0 0 0 -2.9864,6.2168 4,4 0 0 0 0.094,0.1367 4,4 0 0 0 0.1,0.1308 4,4 0 0 0 0.098,0.1172 4,4 0 0 0 0.023,0.027 4,4 0 0 0 0.078,0.086 4,4 0 0 0 0.045,0.047 4,4 0 0 0 0.039,0.041 4,4 0 0 0 0.057,0.055 4,4 0 0 0 0.1114,0.1035 4,4 0 0 0 0.031,0.027 4,4 0 0 0 0.072,0.062 4,4 0 0 0 0.1055,0.086 4,4 0 0 0 0.1347,0.1016 4,4 0 0 0 0.2813,0.1835 4,4 0 0 0 5.164,-0.916 9.92,9.92 0 0 1 0,-0.021 4,4 0 0 0 0.8672,-2.8203 9.92,9.92 0 0 1 0,-0.01 4,4 0 0 0 -0.3144,-1.252 4,4 0 0 0 -0.1465,-0.3027 4,4 0 0 0 -0.082,-0.1465 4,4 0 0 0 -0.1817,-0.2832 4,4 0 0 0 -0.027,-0.039 4,4 0 0 0 -0.072,-0.096 4,4 0 0 0 -0.096,-0.1191 4,4 0 0 0 -0.01,-0.012 4,4 0 0 0 -0.031,-0.037 4,4 0 0 0 -0.08,-0.09 4,4 0 0 0 -0.033,-0.035 4,4 0 0 0 -0.084,-0.086 4,4 0 0 0 -0.033,-0.033 4,4 0 0 0 -0.088,-0.082 4,4 0 0 0 -0.035,-0.033 4,4 0 0 0 -0.024,-0.019 4,4 0 0 0 -0.1386,-0.1192 4,4 0 0 0 -2.6075,-0.8828 z m -19.8769,2.0059 a 2,2 0 0 1 1.7305,1.0312 2,2 0 0 1 0.014,0.025 2,2 0 0 1 0.01,0.018 2,2 0 0 1 0.043,0.09 2,2 0 0 1 0.035,0.082 2,2 0 0 1 0.1446,0.7441 2,2 0 0 1 -3.668,1.1035 2,2 0 0 1 -0.047,-0.076 2,2 0 0 1 -0.027,-0.045 2,2 0 0 1 -0.025,-0.049 2,2 0 0 1 -0.025,-0.049 2,2 0 0 1 -0.021,-0.043 2,2 0 0 1 -0.037,-0.088 2,2 0 0 1 -0.041,-0.1113 2,2 0 0 1 -0.033,-0.1075 2,2 0 0 1 -0.01,-0.025 2,2 0 0 1 -0.022,-0.088 2,2 0 0 1 0,-0.016 2,2 0 0 1 1.9805,-2.3964 z m 10,0 a 2,2 0 0 1 1.7305,1.0312 2,2 0 0 1 0.014,0.025 2,2 0 0 1 0.01,0.018 2,2 0 0 1 0.043,0.09 2,2 0 0 1 0.035,0.082 2,2 0 0 1 0.1446,0.7441 2,2 0 0 1 -3.668,1.1035 2,2 0 0 1 -0.047,-0.076 2,2 0 0 1 -0.027,-0.045 2,2 0 0 1 -0.025,-0.049 2,2 0 0 1 -0.025,-0.049 2,2 0 0 1 -0.021,-0.043 2,2 0 0 1 -0.037,-0.088 2,2 0 0 1 -0.041,-0.1113 2,2 0 0 1 -0.033,-0.1075 2,2 0 0 1 -0.01,-0.025 2,2 0 0 1 -0.022,-0.088 2,2 0 0 1 0,-0.016 2,2 0 0 1 1.9805,-2.3964 z m 9.998,0 a 2,2 0 0 1 1.7305,1.0312 2,2 0 0 1 0.014,0.025 2,2 0 0 1 0.01,0.018 2,2 0 0 1 0.043,0.09 2,2 0 0 1 0.035,0.082 2,2 0 0 1 0.1445,0.7441 2,2 0 0 1 -3.668,1.1035 2,2 0 0 1 -0.047,-0.076 2,2 0 0 1 -0.027,-0.045 2,2 0 0 1 -0.025,-0.049 2,2 0 0 1 -0.025,-0.049 2,2 0 0 1 -0.022,-0.043 2,2 0 0 1 -0.037,-0.088 2,2 0 0 1 -0.041,-0.1113 2,2 0 0 1 -0.033,-0.1075 2,2 0 0 1 -0.01,-0.025 2,2 0 0 1 -0.021,-0.088 2,2 0 0 1 0,-0.016 2,2 0 0 1 1.9804,-2.3964 z"
          style="fill:#eafaf5;fill-opacity:1" />
      <path
          d="m 131.856,33 c -1.1046,0 -2,0.8954 -2,2 V 45.543 47.457 56 a 2,2 0 0 0 2,2 h 36 a 2,2 0 0 0 2,-2 V 46.3379 44.6621 35 c 0,-1.1046 -0.8954,-2 -2,-2 z m 0,2 h 36 V 43.1426 47.8574 56 h -36 v -8.9492 -1.1016 z m 5,3 a 1,1 0 0 0 0,2 h 10 a 1,1 0 0 0 0,-2 z m 16,0 a 1,1 0 0 0 0,2 h 11 a 1,1 0 0 0 0,-2 z m -16,4 a 1,1 0 0 0 0,2 h 10 a 1,1 0 0 0 0,-2 z m 16,0 a 1,1 0 0 0 0,2 h 11 a 1,1 0 0 0 0,-2 z m -16.0293,4 a 1.0001073,1.0001073 0 0 0 0.029,2 h 10 a 1,1 0 0 0 0,-2 h -10 a 1,1 0 0 0 -0.029,0 z m 16,0 a 1.0001073,1.0001073 0 0 0 0.029,2 h 11 a 1,1 0 0 0 0,-2 h -11 a 1,1 0 0 0 -0.029,0 z m -16,4 a 1.0001073,1.0001073 0 0 0 0.029,2 h 10 a 1,1 0 0 0 0,-2 h -10 a 1,1 0 0 0 -0.029,0 z m 16,0 a 1.0001073,1.0001073 0 0 0 0.029,2 h 11 a 1,1 0 0 0 0,-2 h -11 a 1,1 0 0 0 -0.029,0 z"
          style="fill:#eafaf5;fill-opacity:1" />
      <path
          d="m 41.856,118 a 2,2 0 0 1 -2,-2 V 95 a 2,2 0 0 1 2,-2 h 36 a 2,2 0 0 1 2,2 v 21 a 2,2 0 0 1 -2,2 z m 0,-2 h 36 V 95 h -36 z m 25,-4 a 1,1 0 0 1 0,-2 h 6 a 1,1 0 1 1 0,2 z m -10,0 a 1,1 0 1 1 0,-2 h 6 a 1,1 0 0 1 0,2 z m -10,0 a 1,1 0 0 1 0,-2 h 6 a 1,1 0 0 1 0,2 z m 21,-4 a 2,2 0 0 1 -2,-2 v -4 a 2,2 0 0 1 2,-2 h 4 a 2,2 0 0 1 2,2 v 4 a 2,2 0 0 1 -2,2 z m 0,-2 h 4 v -4 h -4 z m -10,2 a 2,2 0 0 1 -2,-2 v -4 a 2,2 0 0 1 2,-2 h 4 a 2,2 0 0 1 2,2 v 4 a 2,2 0 0 1 -2,2 z m 0,-2 h 4 v -4 h -4 z m -10,2 a 2,2 0 0 1 -2,-2 v -4 a 2,2 0 0 1 2,-2 h 4 a 2,2 0 0 1 2,2 v 4 a 2,2 0 0 1 -2,2 z m 0,-2 h 4 v -4 h -4 z"
          style="fill:#eafaf5;fill-opacity:1" />
      <path
          d="m 86.856,118 a 2,2 0 0 1 -2,-2 V 95 a 2,2 0 0 1 2,-2 h 36 a 2,2 0 0 1 2,2 v 21 a 2,2 0 0 1 -2,2 z m 0,-2 h 36 V 95 h -36 z m 32,-3 a 1,1 0 1 1 1,1 1,1 0 0 1 -1,-1 z m -3,0 a 1,1 0 1 1 1,1 1,1 0 0 1 -1,-1 z m -26,1 a 1,1 0 0 1 0,-2 h 24 a 1,1 0 1 1 0,2 z m 12,-7.035 v -6.931 a 1,1 0 0 1 0.958,-1.035 0.9,0.9 0 0 1 0.508,0.161 l 5.088,3.466 a 1.077,1.077 0 0 1 0,1.747 l -5.088,3.466 a 0.893,0.893 0 0 1 -0.508,0.161 1,1 0 0 1 -0.958,-1.035 z"
          style="fill:#eafaf5;fill-opacity:1" />
      <path
          d="m 41.856,88 a 2,2 0 0 1 -2,-2 V 65 a 2,2 0 0 1 2,-2 h 36 a 2,2 0 0 1 2,2 v 21 a 2,2 0 0 1 -2,2 z m 0,-2 h 36 V 65 h -36 z m 10,-4 a 2,2 0 0 1 -2,-2 h -2 a 2,2 0 0 1 -2,-2 v -5 a 2,2 0 0 1 2,-2 h 2 a 2,2 0 0 1 2,-2 h 16 a 2,2 0 0 1 2,2 h 2 a 2,2 0 0 1 2,2 v 5 a 2,2 0 0 1 -2,2 h -2 a 2,2 0 0 1 -2,2 z m 0,-2 h 16 v -9 h -16 v 1.937 c 0,0.021 0,0.042 0,0.063 v 5 c 0,0.021 0,0.042 0,0.063 z m 18,-2 h 2 v -5 h -2 z m -22,0 h 2 v -5 h -2 z"
          style="fill:#eafaf5;fill-opacity:1" />
      <path
          d="m 86.856,88 a 2,2 0 0 1 -2,-2 V 65 a 2,2 0 0 1 2,-2 h 36 a 2,2 0 0 1 2,2 v 21 a 2,2 0 0 1 -2,2 z m 0,-2 h 36 V 65 h -36 z m 17,-7 v -3 h -3 a 1,1 0 0 1 0,-2 h 3 v -3 a 1,1 0 0 1 2,0 v 3 h 3 a 1,1 0 1 1 0,2 h -3 v 3 a 1,1 0 0 1 -2,0 z"
          style="fill:rgb(51 204 153);fill-opacity:1" />
      <path
          d="m 131.855,118 a 2,2 0 0 1 -2,-2 V 95 a 2,2 0 0 1 2,-2 h 36 a 2,2 0 0 1 2,2 v 21 a 2,2 0 0 1 -2,2 z m 0,-2 h 36 V 95 h -36 z m 5,-4 a 1,1 0 0 1 0,-2 h 20 a 1,1 0 0 1 0,2 z m 0,-4 a 1,1 0 0 1 0,-2 h 26 a 1,1 0 1 1 0,2 z m 0,-7 a 1,1 0 0 1 0,-2 h 15 a 1,1 0 0 1 0,2 z"
          style="fill:#eafaf5;fill-opacity:1" />
      <path
          d="m 131.855,88 a 2,2 0 0 1 -2,-2 V 65 a 2,2 0 0 1 2,-2 h 36 a 2,2 0 0 1 2,2 v 21 a 2,2 0 0 1 -2,2 z m 36,-2 V 65 h -36 v 13.609 l 7.9,-7.9 a 1,1 0 0 1 1.416,0 l 6.792,6.792 3.792,-3.792 a 1,1 0 0 1 1.417,0 l 12.021,12.021 a 1,1 0 0 1 0.193,0.271 z m -5.221,0 -10.17,-10.17 -3.086,3.086 7.084,7.084 z m -30.779,0 h 21.779 l -13.169,-13.17 -8.61,8.61 z m 27,-15 a 3,3 0 1 1 3,3 3,3 0 0 1 -3,-3 z m 2,0 a 1,1 0 1 0 1,-1 1,1 0 0 0 -1,1 z"
          style="fill:#eafaf5;fill-opacity:1" />
    </g>
  </defs>

  <use href="#empty-data-collection" />

</svg>
