<?xml version="1.0" encoding="UTF-8" standalone="no"?>
<svg xmlns:svg="http://www.w3.org/2000/svg" xmlns="http://www.w3.org/2000/svg">
  <defs>

    <svg id="logo-qwars" viewBox="0 0 16 16">
      <path d="M 8.02 0 C 5.62 -2.96e-16 3.69 0.737 2.22 2.22 C 0.747 3.69 0.0137 5.61 0.0137 8 C 0.0137 10.4 0.747 12.3 2.22 13.8 C 3.69 15.3 5.62 16 8.02 16 C 9.03 16 9.99 15.8 10.9 15.5 C 10.5 15.5 10.5 15.4 10.3 15 L 10.1 14 C 9.36 14.2 8.68 14.2 8 14.2 C 6.24 14.2 4.82 13.7 3.75 12.6 C 2.67 11.4 2.13 9.88 2.13 8 C 2.13 6.11 2.67 4.6 3.75 3.46 C 4.84 2.29 6.26 1.71 8.02 1.71 C 9.79 1.71 11.2 2.29 12.3 3.46 C 13.4 4.6 13.9 6.11 13.9 7.98 C 13.9 9.92 13.3 11.5 12.1 12.8 L 10.1 11.2 L 11.2 15.2 L 15.8 15.5 L 13.7 13.9 C 15.2 12.3 16 10.4 16 7.95 C 16 5.59 15.3 3.66 13.8 2.19 C 12.3 0.729 10.4 0 8.02 0 z " />
    </svg>

    
    <symbol id="ban" viewBox="0 0 512 512">
      <path d="M256 8C119.034 8 8 119.033 8 256s111.034 248 248 248 248-111.034 248-248S392.967 8 256 8zm130.108 117.892c65.448 65.448 70 165.481 20.677 235.637L150.47 105.216c70.204-49.356 170.226-44.735 235.638 20.676zM125.892 386.108c-65.448-65.448-70-165.481-20.677-235.637L361.53 406.784c-70.203 49.356-170.226 44.736-235.638-20.676z" />
    </symbol>
    
    <symbol id="sign-out" viewBox="0 0 512 512">
      <path d="M497 273L329 441c-15 15-41 4.5-41-17v-96H152c-13.3 0-24-10.7-24-24v-96c0-13.3 10.7-24 24-24h136V88c0-21.4 25.9-32 41-17l168 168c9.3 9.4 9.3 24.6 0 34zM192 436v-40c0-6.6-5.4-12-12-12H96c-17.7 0-32-14.3-32-32V160c0-17.7 14.3-32 32-32h84c6.6 0 12-5.4 12-12V76c0-6.6-5.4-12-12-12H96c-53 0-96 43-96 96v192c0 53 43 96 96 96h84c6.6 0 12-5.4 12-12z" />
    </symbol>

    <symbol id="prefers-color-scheme" viewBox="0 0 512 512">
      <path d="M8 256c0 136.966 111.033 248 248 248s248-111.034 248-248S392.966 8 256 8 8 119.033 8 256zm248 184V72c101.705 0 184 82.311 184 184 0 101.705-82.311 184-184 184z" />
    </symbol>
    
  </defs>
</svg>
