<?xml version="1.0" encoding="UTF-8" standalone="no"?>
<svg xmlns:svg="http://www.w3.org/2000/svg" xmlns="http://www.w3.org/2000/svg">
  <defs>

    <svg id="logo-qwars" viewBox="0 0 16 16">
      <path d="M 8.02 0 C 5.62 -2.96e-16 3.69 0.737 2.22 2.22 C 0.747 3.69 0.0137 5.61 0.0137 8 C 0.0137 10.4 0.747 12.3 2.22 13.8 C 3.69 15.3 5.62 16 8.02 16 C 9.03 16 9.99 15.8 10.9 15.5 C 10.5 15.5 10.5 15.4 10.3 15 L 10.1 14 C 9.36 14.2 8.68 14.2 8 14.2 C 6.24 14.2 4.82 13.7 3.75 12.6 C 2.67 11.4 2.13 9.88 2.13 8 C 2.13 6.11 2.67 4.6 3.75 3.46 C 4.84 2.29 6.26 1.71 8.02 1.71 C 9.79 1.71 11.2 2.29 12.3 3.46 C 13.4 4.6 13.9 6.11 13.9 7.98 C 13.9 9.92 13.3 11.5 12.1 12.8 L 10.1 11.2 L 11.2 15.2 L 15.8 15.5 L 13.7 13.9 C 15.2 12.3 16 10.4 16 7.95 C 16 5.59 15.3 3.66 13.8 2.19 C 12.3 0.729 10.4 0 8.02 0 z " />
    </svg>
    
    <symbol id="ban" viewBox="0 0 512 512">
      <path d="M256 8C119.034 8 8 119.033 8 256s111.034 248 248 248 248-111.034 248-248S392.967 8 256 8zm130.108 117.892c65.448 65.448 70 165.481 20.677 235.637L150.47 105.216c70.204-49.356 170.226-44.735 235.638 20.676zM125.892 386.108c-65.448-65.448-70-165.481-20.677-235.637L361.53 406.784c-70.203 49.356-170.226 44.736-235.638-20.676z" />
    </symbol>
    
    <symbol id="sign-out" viewBox="0 0 512 512">
      <path d="M497 273L329 441c-15 15-41 4.5-41-17v-96H152c-13.3 0-24-10.7-24-24v-96c0-13.3 10.7-24 24-24h136V88c0-21.4 25.9-32 41-17l168 168c9.3 9.4 9.3 24.6 0 34zM192 436v-40c0-6.6-5.4-12-12-12H96c-17.7 0-32-14.3-32-32V160c0-17.7 14.3-32 32-32h84c6.6 0 12-5.4 12-12V76c0-6.6-5.4-12-12-12H96c-53 0-96 43-96 96v192c0 53 43 96 96 96h84c6.6 0 12-5.4 12-12z" />
    </symbol>

    <symbol id="prefers-color-scheme" viewBox="0 0 512 512">
      <path d="M8 256c0 136.966 111.033 248 248 248s248-111.034 248-248S392.966 8 256 8 8 119.033 8 256zm248 184V72c101.705 0 184 82.311 184 184 0 101.705-82.311 184-184 184z" />
    </symbol>

    <symbol id="search-plus" viewBox="0 0 512 512">
      <path d="M304 192v32c0 6.6-5.4 12-12 12h-56v56c0 6.6-5.4 12-12 12h-32c-6.6 0-12-5.4-12-12v-56h-56c-6.6 0-12-5.4-12-12v-32c0-6.6 5.4-12 12-12h56v-56c0-6.6 5.4-12 12-12h32c6.6 0 12 5.4 12 12v56h56c6.6 0 12 5.4 12 12zm201 284.7L476.7 505c-9.4 9.4-24.6 9.4-33.9 0L343 405.3c-4.5-4.5-7-10.6-7-17V372c-35.3 27.6-79.7 44-128 44C93.1 416 0 322.9 0 208S93.1 0 208 0s208 93.1 208 208c0 48.3-16.4 92.7-44 128h16.3c6.4 0 12.5 2.5 17 7l99.7 99.7c9.3 9.4 9.3 24.6 0 34zM344 208c0-75.2-60.8-136-136-136S72 132.8 72 208s60.8 136 136 136 136-60.8 136-136z" />
    </symbol>

    <symbol id="image" viewBox="0 0 512 512">
      <path d="M464 64H48C21.49 64 0 85.49 0 112v288c0 26.51 21.49 48 48 48h416c26.51 0 48-21.49 48-48V112c0-26.51-21.49-48-48-48zm-6 336H54a6 6 0 0 1-6-6V118a6 6 0 0 1 6-6h404a6 6 0 0 1 6 6v276a6 6 0 0 1-6 6zM128 152c-22.091 0-40 17.909-40 40s17.909 40 40 40 40-17.909 40-40-17.909-40-40-40zM96 352h320v-80l-87.515-87.515c-4.686-4.686-12.284-4.686-16.971 0L192 304l-39.515-39.515c-4.686-4.686-12.284-4.686-16.971 0L96 304v48z" />
    </symbol>

    <symbol id="dolly-flatbed" viewBox="0 0 640 512">
      <path d="M208 320h384c8.8 0 16-7.2 16-16V48c0-8.8-7.2-16-16-16H448v128l-48-32-48 32V32H208c-8.8 0-16 7.2-16 16v256c0 8.8 7.2 16 16 16zm416 64H128V16c0-8.8-7.2-16-16-16H16C7.2 0 0 7.2 0 16v32c0 8.8 7.2 16 16 16h48v368c0 8.8 7.2 16 16 16h82.9c-1.8 5-2.9 10.4-2.9 16 0 26.5 21.5 48 48 48s48-21.5 48-48c0-5.6-1.2-11-2.9-16H451c-1.8 5-2.9 10.4-2.9 16 0 26.5 21.5 48 48 48s48-21.5 48-48c0-5.6-1.2-11-2.9-16H624c8.8 0 16-7.2 16-16v-32c0-8.8-7.2-16-16-16z" />
    </symbol>

    <symbol id="dolly-flatbed-alt" viewBox="0 0 640 512">
      <path d="M624 384H128V16c0-8.8-7.2-16-16-16H16C7.2 0 0 7.2 0 16v32c0 8.8 7.2 16 16 16h48v368c0 8.8 7.2 16 16 16h82.9c-1.8 5-2.9 10.4-2.9 16 0 26.5 21.5 48 48 48s48-21.5 48-48c0-5.6-1.2-11-2.9-16H451c-1.8 5-2.9 10.4-2.9 16 0 26.5 21.5 48 48 48s48-21.5 48-48c0-5.6-1.2-11-2.9-16H624c8.8 0 16-7.2 16-16v-32c0-8.8-7.2-16-16-16zm-416-64h160c8.8 0 16-7.2 16-16V48c0-8.8-7.2-16-16-16H208c-8.8 0-16 7.2-16 16v256c0 8.8 7.2 16 16 16zm224-160h96c8.8 0 16-7.2 16-16V48c0-8.8-7.2-16-16-16h-96c-8.8 0-16 7.2-16 16v96c0 8.8 7.2 16 16 16zm0 160h160c8.8 0 16-7.2 16-16v-96c0-8.8-7.2-16-16-16H432c-8.8 0-16 7.2-16 16v96c0 8.8 7.2 16 16 16z" />
    </symbol>

    <symbol id="bars" viewBox="0 0 448 512">
      <path d="M16 132h416c8.837 0 16-7.163 16-16V76c0-8.837-7.163-16-16-16H16C7.163 60 0 67.163 0 76v40c0 8.837 7.163 16 16 16zm0 160h416c8.837 0 16-7.163 16-16v-40c0-8.837-7.163-16-16-16H16c-8.837 0-16 7.163-16 16v40c0 8.837 7.163 16 16 16zm0 160h416c8.837 0 16-7.163 16-16v-40c0-8.837-7.163-16-16-16H16c-8.837 0-16 7.163-16 16v40c0 8.837 7.163 16 16 16z" />
    </symbol>

    <symbol id="css3-alt" viewBox="0 0 384 512">
      <path d="M0 32l34.9 395.8L192 480l157.1-52.2L384 32H0zm313.1 80l-4.8 47.3L193 208.6l-.3.1h111.5l-12.8 146.6-98.2 28.7-98.8-29.2-6.4-73.9h48.9l3.2 38.3 52.6 13.3 54.7-15.4 3.7-61.6-166.3-.5v-.1l-.2.1-3.6-46.3L193.1 162l6.5-2.7H76.7L70.9 112h242.2z" />
    </symbol>

    <symbol id="html5" viewBox="0 0 384 512">
      <path d="M0 32l34.9 395.8L191.5 480l157.6-52.2L384 32H0zm308.2 127.9H124.4l4.1 49.4h175.6l-13.6 148.4-97.9 27v.3h-1.1l-98.7-27.3-6-75.8h47.7L138 320l53.5 14.5 53.7-14.5 6-62.2H84.3L71.5 112.2h241.1l-4.4 47.7z" />
    </symbol>

    <symbol id="code-imba" viewBox="-30 0 440 100">      
      <path d="m 57.557913,0 c -2.843123,0 -5.272838,1.0089156 -7.29054,3.0266177 -2.017702,2.017702 -3.026618,4.4474167 -3.026618,7.2905433 v 67.34096 c 0,2.843125 1.008916,5.27455 3.026618,7.292252 2.017702,1.971845 4.447417,2.956546 7.29054,2.956546 h 0.20679 c 2.843126,0 5.250334,-1.008912 7.222186,-3.026615 1.971843,-2.017702 2.958259,-4.424914 2.958259,-7.222183 v -67.34096 c 0,-2.9348404 -1.008921,-5.3870577 -3.026623,-7.3589028 C 62.900823,0.98641293 60.516111,0 57.764703,0 Z M 192.23984,1.5825229 c -2.38456,-1e-7 -4.4699,0.8254763 -6.25832,2.4763235 -1.78842,1.6508471 -2.68311,3.713684 -2.68311,6.1899546 v 68.716696 c 0,2.613841 0.9622,4.768397 2.88819,6.465102 1.92599,1.650847 4.10475,2.431319 6.53517,2.339601 8.25424,-0.320995 12.61007,-0.481932 13.06864,-0.481932 17.70074,-0.04586 29.69351,-2.383852 35.9759,-7.015395 6.28239,-4.631543 9.42336,-10.501597 9.42336,-17.609412 0.0459,-10.042653 -4.83779,-16.554745 -14.65116,-19.535442 -0.59614,-0.183427 -0.89551,-0.847966 -0.89551,-1.994388 0,-0.596139 0.25266,-1.032235 0.75709,-1.307376 7.88737,-3.576835 11.83132,-9.125017 11.83132,-16.645542 0,-7.520526 -3.64628,-13.046205 -10.93752,-16.5771836 -5.6404,-2.9806961 -14.71893,-4.5399294 -27.23785,-4.6775 -7.0161,-0.091714 -12.95537,-0.2059359 -17.8162,-0.3435065 z m -97.193567,0.136719 c -4.723251,-1e-7 -8.712201,1.6284502 -11.968039,4.8842875 -3.255838,3.3016943 -4.884286,7.2906426 -4.884286,11.9680426 v 60.325566 c 0,2.3387 0.917194,4.424039 2.751469,6.258313 1.788417,1.834276 3.875462,2.751468 6.260026,2.751468 h 1.512449 c 2.522132,0 4.67839,-0.870478 6.466815,-2.613039 1.788408,-1.788418 2.658894,-3.920471 2.613036,-6.396742 l -1.307376,-54.34069 15.064723,52.826526 c 0.87129,3.026553 2.61395,5.549697 5.2278,7.567399 2.56798,1.971845 5.43379,2.956546 8.59792,2.956546 h 0.27514 c 3.07242,0 5.96073,-0.962198 8.66628,-2.888187 2.70555,-1.971845 4.49495,-4.517491 5.36622,-7.635758 l 14.92631,-52.826526 -1.23902,54.34069 c 0,2.476271 0.8947,4.608324 2.68312,6.396742 1.78841,1.742561 3.94468,2.613039 6.4668,2.613039 h 0.13672 c 3.20998,0 5.75562,-0.892982 7.63576,-2.681399 1.88013,-1.788418 2.81983,-3.897968 2.81983,-6.328382 V 18.571572 c 0,-4.723258 -1.67345,-8.7122054 -5.02101,-11.9680426 -3.25583,-3.2558373 -7.19977,-4.8842876 -11.83132,-4.8842875 h -0.20678 c -3.76026,-0.045857 -7.1539,1.0772809 -10.18045,3.3701242 -3.02655,2.2469864 -5.04438,5.1820139 -6.05324,8.8047059 L 125.65595,63.488903 111.34831,13.757353 C 110.2936,10.134661 108.27577,7.2221361 105.29507,5.0210066 102.31438,2.8198771 98.967471,1.7192419 95.253062,1.7192419 Z m 199.821707,0.138428 c -3.02655,0 -6.00658,1.0314182 -8.94142,3.0949771 -2.93485,2.063559 -4.99939,4.8376496 -6.19166,8.322771 l -20.84111,60.530644 c -1.10056,3.301695 -0.64197,6.375156 1.37573,9.218282 2.01771,2.888981 4.74508,4.332284 8.18434,4.332284 h 1.51417 c 2.61384,0 4.90683,-0.66454 6.87868,-1.994389 1.92598,-1.329849 3.09413,-3.095025 3.50684,-5.296154 l 3.30176,-16.852329 h 26.07061 l 3.57692,17.059117 c 0.36685,2.017701 1.48999,3.691157 3.37012,5.021007 1.88013,1.375705 3.92046,2.062748 6.1216,2.062748 h 1.51415 c 3.43928,0 6.18915,-1.443303 8.25271,-4.332284 2.06356,-2.843126 2.49965,-5.916587 1.30738,-9.218282 L 311.9271,13.000271 C 310.73483,9.6985772 308.64777,7.016206 305.66708,4.952647 302.73224,2.8890881 299.7747,1.8576699 296.79401,1.8576699 Z M 29.340815,11.612573 c -1.021031,0.05374 -2.117033,0.355482 -3.286384,0.905764 l -52.001085,22.493699 c -4.035404,1.74256 -6.053235,4.814313 -6.053235,9.216572 0,4.402259 2.017831,7.47572 6.053235,9.218281 L 26.054431,75.80216 c 1.054709,0.504426 2.385497,0.755373 3.990487,0.755373 1.604991,0 3.140013,-0.756259 4.607432,-2.269536 1.513276,-1.513277 2.271245,-3.439388 2.271245,-5.778088 0,-3.530978 -1.62845,-5.960693 -4.884288,-7.290542 L -9.9881243,44.160249 32.039307,27.101131 c 3.255838,-1.329849 4.884288,-3.759564 4.884288,-7.290543 0,-2.20113 -1.033128,-4.333183 -3.096686,-6.396742 -1.289725,-1.289724 -2.784374,-1.890837 -4.486094,-1.801273 z m 325.963815,0.275148 c -0.36112,-0.01433 -0.74206,-0.01096 -1.14331,0.01196 -1.60499,0.09171 -3.16423,0.894688 -4.6775,2.407964 -1.51328,1.513277 -2.31625,3.347669 -2.40796,5.502941 0,3.530979 1.65095,5.960694 4.95264,7.290543 l 41.89071,17.059118 -41.89071,17.059118 c -3.30169,1.329849 -4.95264,3.759564 -4.95264,7.290542 0.0917,2.155273 0.89468,4.036379 2.40796,5.64137 1.51327,1.604989 3.07251,2.406255 4.6775,2.406255 1.55914,0 2.84321,-0.250948 3.85206,-0.755374 l 52.00108,-22.355271 c 3.98955,-1.742561 5.98488,-4.816021 5.98488,-9.218281 0.0459,-4.402259 -1.94948,-7.474012 -5.98488,-9.216572 L 358.01338,12.518337 c -0.72225,-0.378319 -1.62538,-0.587626 -2.70875,-0.630616 z m -143.25421,2.763433 c 8.98795,0.04586 13.55143,3.989799 13.689,11.831323 0.0459,4.172975 -1.26243,7.108002 -3.92213,8.804706 -2.65969,1.650848 -6.53442,2.476324 -11.62453,2.476324 h -3.64528 c -0.87128,-0.04586 -1.55832,-0.298513 -2.06274,-0.757082 -0.50443,-0.458568 -0.75709,-1.031388 -0.75709,-1.719242 V 17.334265 c 0,-1.604991 0.84798,-2.45297 2.54469,-2.544683 1.65085,-0.09171 3.57696,-0.138428 5.77808,-0.138428 z m 84.05487,5.021006 11.14431,30.884831 h -22.35527 z m -89.48945,28.476867 h 4.334 c 5.50282,0 9.97458,0.894693 13.41385,2.683111 3.43925,1.74256 5.15772,5.297122 5.15772,10.662375 0,5.365254 -1.69596,8.942318 -5.08937,10.730736 -3.39341,1.788421 -6.97047,2.658902 -10.73073,2.613042 -3.80612,-0.04586 -6.14412,-0.06836 -7.0154,-0.06836 -0.87128,0 -1.58254,-0.252657 -2.13282,-0.757082 -0.55028,-0.458569 -0.82544,-1.031389 -0.82544,-1.719242 V 50.832138 c 0,-0.779568 0.29767,-1.421605 0.89381,-1.92603 0.59613,-0.504425 1.26067,-0.757081 1.99438,-0.757081 z" />
    </symbol>

    <symbol id="code-css" viewBox="-30 0 480 194">      
      <path d="M 22.904482,0 C 21.681625,0 20.444717,0.220045 19.194276,0.661378 -3.2319159,7.5265383 -14.445373,16.222445 -14.445373,26.749024 l 2.845459,34.424074 c -0.26153,7.64975 -4.315235,12.423489 -12.161133,14.319581 -5.492129,1.176884 -8.239014,4.217163 -8.239014,9.120849 v 0.196533 c 0.06538,5.034452 2.712761,8.074727 7.94336,9.120851 8.303576,1.76533 12.456787,6.471588 12.456787,14.121338 l -2.845459,34.32666 c 0,10.98425 11.2134571,19.80999 33.639649,26.47901 3.596038,0.91535 6.897681,0.45839 9.905274,-1.37232 2.942213,-1.96147 4.414307,-4.47903 4.414307,-7.552 v -0.19653 c 0,-3.66142 -1.897025,-6.44034 -5.689209,-8.33643 -8.565106,-4.05371 -12.848145,-8.46659 -12.848145,-13.2395 -0.06538,-3.33451 0.327519,-7.51804 1.17749,-12.5525 0.849973,-7.64975 1.274902,-12.71688 1.274902,-15.20141 0.261531,-8.43434 -5.098994,-15.889193 -16.0832519,-22.362058 -1.17688404,-0.71921 -1.66758304,-1.666867 -1.47143604,-2.843753 0.261531,-1.242266 0.979854,-2.092128 2.15673904,-2.549805 C 12.557527,79.055577 17.690426,71.177501 17.428895,59.01636 c 0,-2.87683 -0.424929,-7.943961 -1.274902,-15.201417 -0.78459,-4.903686 -1.17749,-9.023159 -1.17749,-12.357666 0,-4.772922 4.283039,-9.251557 12.848145,-13.436036 3.792184,-1.765327 5.689209,-4.512212 5.689209,-8.2390134 V 9.5874028 c 0,-3.2037417 -1.537863,-5.7870606 -4.610839,-7.7485348 C 26.941542,0.612946 24.942577,0 22.904482,0 Z M 360.78095,0.105957 c -2.08917,0.03575 -4.11397,0.645265 -6.07544,1.830323 -3.07297,1.8960918 -4.54506,4.4473811 -4.4143,7.6511228 v 0.1948248 c 0.13076,3.7268014 2.09184,6.4736864 5.88403,8.2390134 8.63048,4.184479 12.94556,8.663114 12.94556,13.436036 0,3.203741 -0.48899,7.323214 -1.46973,12.357666 -0.91536,7.38822 -1.37402,12.455352 -1.37402,15.201417 -0.26153,12.161141 4.9034,20.039217 15.49535,23.635254 1.30766,0.457677 2.02769,1.275508 2.15845,2.452393 0.13077,1.242267 -0.39196,2.221955 -1.56885,2.941165 -10.98425,6.407476 -16.34648,13.862338 -16.08495,22.362058 -0.0654,2.48453 0.39328,7.55166 1.37402,15.20141 0.98074,5.03446 1.46973,9.21799 1.46973,12.5525 0,4.77291 -4.3471,9.18579 -13.04297,13.2395 -3.85757,1.83071 -5.78662,4.60963 -5.78662,8.33643 v 0.19653 c -0.13076,3.07297 1.34133,5.5585 4.4143,7.45459 3.13836,1.96148 6.50406,2.45046 10.1001,1.46973 22.42618,-6.66902 33.57387,-15.49476 33.44311,-26.47901 0,-3.7268 -0.52272,-9.51396 -1.56884,-17.35986 -0.98074,-9.87276 -1.47144,-15.52838 -1.47144,-16.9668 0,-7.64975 4.18524,-12.356008 12.5542,-14.121338 5.49212,-1.046124 8.23731,-4.086399 8.23731,-9.120851 v -0.196533 c 0,-4.903686 -2.74519,-7.943965 -8.23731,-9.120849 -7.91128,-1.765327 -12.09652,-6.539065 -12.5542,-14.319581 0,-1.438415 0.4907,-7.159811 1.47144,-17.163331 1.04612,-7.911281 1.56884,-13.664706 1.56884,-17.260743 0,-10.461197 -11.21174,-19.157103 -33.63794,-26.087646 -1.29948,-0.392295 -2.57632,-0.576874 -3.82983,-0.555421 z M 113.602,12.762696 c -0.90718,-0.02452 -2.07109,0.0602 -3.49317,0.256348 -18.307097,1.634563 -33.312892,8.074281 -45.016359,19.320068 -11.703465,11.180405 -17.554687,25.729243 -17.554687,43.644045 0,17.914803 5.426292,32.493953 16.279786,43.739743 10.788111,11.1804 26.218833,17.26096 46.29126,18.24171 1.17689,0.19614 2.15829,0.29565 2.94288,0.29565 h 2.84375 c 0.71921,0.0654 1.66686,-0.0341 2.84375,-0.29565 6.3421,-0.26153 12.25909,-1.11139 17.75122,-2.54981 5.55748,-1.37303 8.36844,-4.93604 8.43382,-10.6897 0.0654,-5.68828 -2.64775,-9.38282 -8.13989,-11.08276 h -0.29393 c -2.61531,-0.78459 -5.75338,-0.39169 -9.4148,1.17749 -3.66142,1.56917 -7.87869,2.35327 -12.65161,2.35327 -10.26505,0 -18.992988,-4.05371 -26.185059,-12.16114 C 81.112269,96.904538 77.547554,87.131147 77.547554,75.689212 77.612934,64.247276 81.209674,54.34064 88.336366,45.971681 95.463057,37.864253 104.15897,33.810548 114.42402,33.810548 c 4.77292,-0.06538 8.95816,0.752448 12.5542,2.452392 4.11909,1.896093 7.35496,2.255254 9.70873,1.07837 4.96907,-1.699945 7.51866,-5.165153 7.64942,-10.395752 0,-5.492129 -2.51755,-8.957338 -7.55201,-10.395753 -5.68826,-1.896092 -10.59182,-3.007316 -14.71093,-3.334228 -4.11909,-0.392296 -6.66867,-0.523832 -7.64941,-0.393066 -0.24518,-0.03269 -0.51962,-0.05164 -0.82202,-0.05982 z m 92.61839,0.649414 c -13.99185,-0.130764 -25.26937,3.268676 -33.83447,10.199219 -8.5651,6.603631 -12.84814,15.528871 -12.84814,26.774659 0,16.476386 11.34329,28.767329 34.03101,36.874757 7.38822,2.680683 12.58688,5.198233 15.59448,7.552001 2.94221,2.353767 4.41259,5.394054 4.41259,9.120854 0,3.66142 -1.66598,6.63593 -5.00048,8.92432 -3.33451,2.28838 -7.61755,3.43335 -12.84814,3.43335 -5.29598,0 -11.86723,-1.24276 -19.71314,-3.7273 -3.3345,-1.1115 -6.50462,-0.8164 -9.51221,0.88355 -2.94221,1.63456 -4.83924,4.11837 -5.68921,7.45288 l -0.19653,0.39306 c -0.71921,3.07297 -0.22851,6.04748 1.47143,8.92432 1.63458,2.87682 3.95652,4.67434 6.96412,5.39356 9.61123,2.87682 17.65286,4.31518 24.12573,4.31518 16.93406,0 29.8135,-4.05371 38.64014,-12.16113 7.38822,-6.93055 11.08277,-15.65849 11.08277,-26.18506 0,-16.672541 -9.93696,-28.735856 -29.81324,-36.189458 -9.67661,-3.66142 -16.11804,-6.538132 -19.32178,-8.630372 -3.26913,-2.092239 -4.90307,-4.805386 -4.90307,-8.139893 0,-3.334506 1.43834,-6.14716 4.31518,-8.435547 5.36136,-4.249861 14.54797,-4.543255 27.55908,-0.881836 3.13836,0.849972 6.04709,0.457071 8.72779,-1.17749 2.61529,-1.56918 4.41282,-3.857396 5.39355,-6.864991 l 0.19653,-0.196533 c 0.78459,-3.072977 0.32763,-6.079517 -1.37231,-9.021729 -1.69995,-2.942211 -4.08595,-4.773468 -7.15894,-5.492676 -8.49972,-2.09224 -15.26828,-3.137695 -20.30274,-3.137695 z m 98.07521,0 c -13.99185,-0.130764 -25.27108,3.268676 -33.83619,10.199219 -8.5651,6.603631 -12.84814,15.528871 -12.84814,26.774659 0,16.476386 11.34499,28.767329 34.03272,36.874757 7.38822,2.680683 12.58518,5.198233 15.59277,7.552001 2.94221,2.353767 4.4143,5.394054 4.4143,9.120854 0,3.66142 -1.66768,6.63593 -5.0022,8.92432 -3.3345,2.28838 -7.61754,3.43335 -12.84814,3.43335 -5.29598,0 -11.86723,-1.24276 -19.71314,-3.7273 -3.3345,-1.1115 -6.50461,-0.8164 -9.5122,0.88355 -2.9422,1.63456 -4.83924,4.11837 -5.68921,7.45288 l -0.19482,0.39306 c -0.71921,3.07297 -0.23022,6.04748 1.46973,8.92432 1.63456,2.87682 3.95651,4.67434 6.9641,5.39356 9.61123,2.87682 17.65288,4.31518 24.12574,4.31518 16.93406,0 29.81521,-4.05371 38.64185,-12.16113 7.38822,-6.93055 11.08105,-15.65849 11.08105,-26.18506 0,-16.672541 -9.93695,-28.735856 -29.81324,-36.189458 -9.6766,-3.66142 -16.11803,-6.538132 -19.32177,-8.630372 -3.26913,-2.092239 -4.90307,-4.805386 -4.90307,-8.139893 0,-3.334506 1.43835,-6.14716 4.31518,-8.435547 5.36136,-4.249861 14.54797,-4.543255 27.55908,-0.881836 3.13836,0.849972 6.0471,0.457071 8.72778,-1.17749 2.6153,-1.56918 4.41454,-3.857396 5.39527,-6.864991 l 0.19482,-0.196533 c 0.78459,-3.072977 0.32763,-6.079517 -1.37231,-9.021729 -1.69995,-2.942211 -4.08596,-4.773468 -7.15894,-5.492676 -8.49971,-2.09224 -15.26657,-3.137695 -20.30102,-3.137695 z" />
    </symbol>

    <symbol id="folder-plus" viewBox="0 0 512 512">
      <path d="M464,128H272L208,64H48A48,48,0,0,0,0,112V400a48,48,0,0,0,48,48H464a48,48,0,0,0,48-48V176A48,48,0,0,0,464,128ZM359.5,296a16,16,0,0,1-16,16h-64v64a16,16,0,0,1-16,16h-16a16,16,0,0,1-16-16V312h-64a16,16,0,0,1-16-16V280a16,16,0,0,1,16-16h64V200a16,16,0,0,1,16-16h16a16,16,0,0,1,16,16v64h64a16,16,0,0,1,16,16Z" />
    </symbol>

    <symbol id="folder" viewBox="0 0 512 512">
      <path d="M464 128H272l-54.63-54.63c-6-6-14.14-9.37-22.63-9.37H48C21.49 64 0 85.49 0 112v288c0 26.51 21.49 48 48 48h416c26.51 0 48-21.49 48-48V176c0-26.51-21.49-48-48-48zm0 272H48V112h140.12l54.63 54.63c6 6 14.14 9.37 22.63 9.37H464v224z" />
    </symbol>

    <symbol id="folder-times" viewBox="0 0 512 512">
      <path d="M464 128H272l-64-64H48C21.49 64 0 85.49 0 112v288c0 26.51 21.49 48 48 48h416c26.51 0 48-21.49 48-48V176c0-26.51-21.49-48-48-48zM340.85 338.91c6.25 6.25 6.25 16.38 0 22.63l-11.31 11.31c-6.25 6.25-16.38 6.25-22.63 0L256 321.94l-50.91 50.91c-6.25 6.25-16.38 6.25-22.63 0l-11.31-11.31c-6.25-6.25-6.25-16.38 0-22.63L222.06 288l-50.91-50.91c-6.25-6.25-6.25-16.38 0-22.63l11.31-11.31c6.25-6.25 16.38-6.25 22.63 0L256 254.06l50.91-50.91c6.25-6.25 16.38-6.25 22.63 0l11.31 11.31c6.25 6.25 6.25 16.38 0 22.63L289.94 288l50.91 50.91z" />
    </symbol>
    
    <symbol id="trash" viewBox="0 0 448 512" >
      <path d="M432 32H312l-9.4-18.7A24 24 0 0 0 281.1 0H166.8a23.72 23.72 0 0 0-21.4 13.3L136 32H16A16 16 0 0 0 0 48v32a16 16 0 0 0 16 16h416a16 16 0 0 0 16-16V48a16 16 0 0 0-16-16zM53.2 467a48 48 0 0 0 47.9 45h245.8a48 48 0 0 0 47.9-45L416 128H32z" />
    </symbol>

    <symbol id="trash-undo" viewBox="0 0 448 512">
      <path d="M53.2 467a48 48 0 0 0 47.9 45h245.8a48 48 0 0 0 47.9-45L416 128H32zm47.18-189.47l84-81.59c8.84-8.59 23.61-2.24 23.61 10.47v41.67c82.47.8 144 18.36 144 103.92 0 34.29-20.14 68.26-42.41 86-6.95 5.54-16.85-1.41-14.29-10.4 23.08-80.93-6.55-101.74-87.3-102.72v44.69c0 12.69-14.76 19.07-23.61 10.47l-84-81.59a14.7 14.7 0 0 1 0-20.92zM432 32H312l-9.4-18.7A24 24 0 0 0 281.1 0H166.8a23.72 23.72 0 0 0-21.4 13.3L136 32H16A16 16 0 0 0 0 48v32a16 16 0 0 0 16 16h416a16 16 0 0 0 16-16V48a16 16 0 0 0-16-16z" />
    </symbol>
    
  </defs>
</svg>
