<?xml version="1.0" encoding="UTF-8" standalone="no"?>
<svg
   xmlns:dc="http://purl.org/dc/elements/1.1/"
   xmlns:cc="http://creativecommons.org/ns#"
   xmlns:rdf="http://www.w3.org/1999/02/22-rdf-syntax-ns#"
   xmlns:svg="http://www.w3.org/2000/svg"
   xmlns="http://www.w3.org/2000/svg"
   xmlns:sodipodi="http://sodipodi.sourceforge.net/DTD/sodipodi-0.dtd"
   xmlns:inkscape="http://www.inkscape.org/namespaces/inkscape"
   aria-hidden="true"
   focusable="false"
   data-prefix="fas"
   data-icon="th-large"
   role="img"
   viewBox="0 0 512 512"
   class="svg-inline--fa fa-th-large fa-w-16 fa-7x"
   version="1.1"
   id="svg4"
   sodipodi:docname="symbol-icon.svg"
   inkscape:version="1.0.2 (e86c870879, 2021-01-15)">
  <metadata
     id="metadata10">
    <rdf:RDF>
      <cc:Work
         rdf:about="">
        <dc:format>image/svg+xml</dc:format>
        <dc:type
           rdf:resource="http://purl.org/dc/dcmitype/StillImage" />
        <dc:title></dc:title>
      </cc:Work>
    </rdf:RDF>
  </metadata>
  <defs
     id="defs8" />
  <sodipodi:namedview
     pagecolor="#ffffff"
     bordercolor="#666666"
     borderopacity="1"
     objecttolerance="10"
     gridtolerance="10"
     guidetolerance="10"
     inkscape:pageopacity="0"
     inkscape:pageshadow="2"
     inkscape:window-width="2160"
     inkscape:window-height="1416"
     id="namedview6"
     showgrid="false"
     showguides="true"
     inkscape:guide-bbox="true"
     inkscape:zoom="2.41"
     inkscape:cx="254"
     inkscape:cy="256"
     inkscape:window-x="0"
     inkscape:window-y="0"
     inkscape:window-maximized="1"
     inkscape:current-layer="svg4"
     inkscape:document-rotation="0">
    <sodipodi:guide
       position="116,494"
       orientation="1,0"
       id="guide837" />
    <sodipodi:guide
       position="132,500"
       orientation="1,0"
       id="guide839" />
  </sodipodi:namedview>
  <path
     id="rect864"
     style="fill:#000000;stroke-width:31.9615;stroke-linecap:round;stroke-linejoin:round;stroke-dashoffset:9.6"
     d="M 48 32 C 39.1 32 32 39.1 32 48 L 32 80 C 32 88.9 39.1 96 48 96 L 80 96 C 88.9 96 96 88.9 96 80 L 96 48 C 96 39.1 88.9 32 80 32 L 48 32 z M 176 32 C 167 32 160 39.1 160 48 L 160 80 C 160 88.9 167 96 176 96 L 208 96 C 217 96 224 88.9 224 80 L 224 48 C 224 39.1 217 32 208 32 L 176 32 z M 304 32 C 295 32 288 39.1 288 48 L 288 80 C 288 88.9 295 96 304 96 L 336 96 C 345 96 352 88.9 352 80 L 352 48 C 352 39.1 345 32 336 32 L 304 32 z M 432 32 C 423 32 416 39.1 416 48 L 416 80 C 416 88.9 423 96 432 96 L 464 96 C 473 96 480 88.9 480 80 L 480 48 C 480 39.1 473 32 464 32 L 432 32 z M 48 160 C 39.1 160 32 167 32 176 L 32 208 C 32 217 39.1 224 48 224 L 80 224 C 88.9 224 96 217 96 208 L 96 176 C 96 167 88.9 160 80 160 L 48 160 z M 176 160 C 167 160 160 167 160 176 L 160 208 C 160 217 167 224 176 224 L 208 224 C 217 224 224 217 224 208 L 224 176 C 224 167 217 160 208 160 L 176 160 z M 304 160 C 295 160 288 167 288 176 L 288 208 C 288 217 295 224 304 224 L 336 224 C 345 224 352 217 352 208 L 352 176 C 352 167 345 160 336 160 L 304 160 z M 432 160 C 423 160 416 167 416 176 L 416 208 C 416 217 423 224 432 224 L 464 224 C 473 224 480 217 480 208 L 480 176 C 480 167 473 160 464 160 L 432 160 z M 48 288 C 39.1 288 32 295 32 304 L 32 336 C 32 345 39.1 352 48 352 L 80 352 C 88.9 352 96 345 96 336 L 96 304 C 96 295 88.9 288 80 288 L 48 288 z M 176 288 C 167 288 160 295 160 304 L 160 336 C 160 345 167 352 176 352 L 208 352 C 217 352 224 345 224 336 L 224 304 C 224 295 217 288 208 288 L 176 288 z M 304 288 C 295 288 288 295 288 304 L 288 336 C 288 345 295 352 304 352 L 336 352 C 345 352 352 345 352 336 L 352 304 C 352 295 345 288 336 288 L 304 288 z M 432 288 C 423 288 416 295 416 304 L 416 336 C 416 345 423 352 432 352 L 464 352 C 473 352 480 345 480 336 L 480 304 C 480 295 473 288 464 288 L 432 288 z M 48 416 C 39.1 416 32 423 32 432 L 32 464 C 32 473 39.1 480 48 480 L 80 480 C 88.9 480 96 473 96 464 L 96 432 C 96 423 88.9 416 80 416 L 48 416 z M 176 416 C 167 416 160 423 160 432 L 160 464 C 160 473 167 480 176 480 L 208 480 C 217 480 224 473 224 464 L 224 432 C 224 423 217 416 208 416 L 176 416 z M 304 416 C 295 416 288 423 288 432 L 288 464 C 288 473 295 480 304 480 L 336 480 C 345 480 352 473 352 464 L 352 432 C 352 423 345 416 336 416 L 304 416 z M 432 416 C 423 416 416 423 416 432 L 416 464 C 416 473 423 480 432 480 L 464 480 C 473 480 480 473 480 464 L 480 432 C 480 423 473 416 464 416 L 432 416 z " />
</svg>
