<?xml version="1.0" encoding="UTF-8" standalone="no"?>
<svg xmlns:svg="http://www.w3.org/2000/svg" xmlns="http://www.w3.org/2000/svg">
  <defs>

    <symbol id="fonticons" viewBox="0 0 448 512">
      <path d="M0 32v448h448V32zm187 140.9c-18.4 0-19 9.9-19 27.4v23.3c0 2.4-3.5 4.4-.6 4.4h67.4l-11.1 37.3H168v112.9c0 5.8-2 6.7 3.2 7.3l43.5 4.1v25.1H84V389l21.3-2c5.2-.6 6.7-2.3 6.7-7.9V267.7c0-2.3-2.9-2.3-5.8-2.3H84V228h28v-21c0-49.6 26.5-70 77.3-70 34.1 0 64.7 8.2 64.7 52.8l-50.7 6.1c.3-18.7-4.4-23-16.3-23zm74.3 241.8v-25.1l20.4-2.6c5.2-.6 7.6-1.7 7.6-7.3V271.8c0-4.1-2.9-6.7-6.7-7.9l-24.2-6.4 6.7-29.5h80.2v151.7c0 5.8-2.6 6.4 2.9 7.3l15.7 2.6v25.1zm80.8-255.5l9 33.2-7.3 7.3-31.2-16.6-31.2 16.6-7.3-7.3 9-33.2-21.8-24.2 3.5-9.6h27.7l15.5-28h9.3l15.5 28h27.7l3.5 9.6z" />
    </symbol>

    <symbol id="palette" viewBox="0 0 512 512">
      <path d="M204.3 5C104.9 24.4 24.8 104.3 5.2 203.4c-37 187 131.7 326.4 258.8 306.7 41.2-6.4 61.4-54.6 42.5-91.7-23.1-45.4 9.9-98.4 60.9-98.4h79.7c35.8 0 64.8-29.6 64.9-65.3C511.5 97.1 368.1-26.9 204.3 5zM96 320c-17.7 0-32-14.3-32-32s14.3-32 32-32 32 14.3 32 32-14.3 32-32 32zm32-128c-17.7 0-32-14.3-32-32s14.3-32 32-32 32 14.3 32 32-14.3 32-32 32zm128-64c-17.7 0-32-14.3-32-32s14.3-32 32-32 32 14.3 32 32-14.3 32-32 32zm128 64c-17.7 0-32-14.3-32-32s14.3-32 32-32 32 14.3 32 32-14.3 32-32 32z" />
    </symbol>

    <symbol id="col-start" viewBox="0 0 512 512">
        <path d="M 0 0 L 0 512 L 130 512 L 130 0 L 0 0 z M 207 0 L 207 512 L 257 512 L 257 0 L 207 0 z M 335 0 L 335 512 L 385 512 L 385 0 L 335 0 z M 462 0 L 462 512 L 512 512 L 512 0 L 462 0 z "/>
    </symbol>

    <symbol id="col-end" viewBox="0 0 512 512">
      <path d="M 0 0 L 0 512 L 50 512 L 50 0 L 0 0 z M 127 0 L 127 512 L 177 512 L 177 0 L 127 0 z M 255 0 L 255 512 L 305 512 L 305 0 L 255 0 z M 382 0 L 382 512 L 512 512 L 512 0 L 382 0 z "/>
    </symbol>

    <symbol id="row-start" viewBox="0 0 512 512">
      <path d="M 0 0 L 0 130 L 512 130 L 512 0 L 0 0 z M 0 207 L 0 257 L 512 257 L 512 207 L 0 207 z M 0 335 L 0 385 L 512 385 L 512 335 L 0 335 z M 0 462 L 0 512 L 512 512 L 512 462 L 0 462 z "/>
    </symbol>
    
    <symbol id="row-end" viewBox="0 0 512 512">
      <path d="M 0 0 L 0 50 L 512 50 L 512 0 L 0 0 z M 0 127 L 0 177 L 512 177 L 512 127 L 0 127 z M 0 255 L 0 305 L 512 305 L 512 255 L 0 255 z M 0 382 L 0 512 L 512 512 L 512 382 L 0 382 z "/>
    </symbol>

    <symbol id="first-letter" viewBox="0 0 448 512">
      <path d="M 333 48.1 C 290 48.9 256 62.9 233 90.1 C 213 112 204 135 204 157 L 204 200 L 195 200 C 186 200 179 203 172 209 C 165 216 162 224 162 232 L 162 233 C 162 242 165 250 172 256 C 178 262 186 266 195 266 L 204 266 L 204 423 C 204 435 208 445 216 453 C 224 461 234 465 245 465 L 247 465 C 258 465 268 461 276 452 C 284 444 288 434 288 423 L 288 266 L 313 266 C 323 266 331 263 337 256 C 343 250 346 242 346 233 L 346 232 C 346 224 342 216 336 209 C 330 203 322 200 313 200 L 288 200 L 288 174 C 288 140 307 123 343 121 C 357 121 366 112 370 94.6 L 370 93.6 C 373 81.5 370 70.8 362 61.5 C 353 52.3 344 47.9 333 48.1 z M 450 64.3 C 436 64.3 425 68.9 416 78 C 407 87.1 403 98.3 403 111 L 403 416 C 403 429 407 440 417 450 C 426 459 437 463 450 463 L 451 463 C 464 463 476 459 485 450 C 494 440 498 429 498 416 L 498 111 C 499 98.3 494 87.1 485 78 C 475 68.9 464 64.3 451 64.3 L 450 64.3 z M 67 165 C 52.4 165 39.7 170 29.1 181 C 18.7 191 13.5 204 13.5 218 C 13.5 233 18.7 246 29.1 257 C 39.7 267 52.4 273 67 273 C 81.9 273 94.7 267 106 257 C 116 246 122 233 122 218 C 122 204 116 191 106 181 C 94.7 170 81.9 165 67 165 z M 68.3 344 C 53.2 344 40.4 349 29.8 359 C 18.9 370 13.5 383 13.5 397 C 13.5 412 18.9 425 29.8 436 C 40.8 446 53.6 452 68.3 452 C 83.4 452 96 446 106 436 C 117 425 122 412 122 397 C 122 382 117 370 106 359 C 95.6 349 82.9 344 68.3 344 z " />
    </symbol>

    <symbol id="text-align-justify" viewBox="0 0 512 512">
      <path d="M 0 0 L 0 50 L 512 50 L 512 0 L 0 0 z M 0 115 L 0 166 L 512 166 L 512 115 L 0 115 z M 0 232 L 0 282 L 512 282 L 512 232 L 0 232 z M 0 347 L 0 397 L 512 397 L 512 347 L 0 347 z M 0 462 L 0 512 L 512 512 L 512 462 L 0 462 z "/>
    </symbol>

    <symbol id="text-align-left" viewBox="0 0 512 512">
      <path d="M 0 0 L 0 50 L 512 50 L 512 0 L 0 0 z M 0 115 L 0 166 L 343 166 L 343 115 L 0 115 z M 0 232 L 0 282 L 512 282 L 512 232 L 0 232 z M 0 347 L 0 397 L 410 397 L 410 347 L 0 347 z M 0 462 L 0 512 L 512 512 L 512 462 L 0 462 z "/>
    </symbol>

    <symbol id="text-align-center" viewBox="0 0 512 512">
      <path d="M 0 0 L 0 50 L 512 50 L 512 0 L 0 0 z M 77 115 L 77 166 L 435 166 L 435 115 L 77 115 z M 0 232 L 0 282 L 512 282 L 512 232 L 0 232 z M 77 347 L 77 397 L 435 397 L 435 347 L 77 347 z M 0 462 L 0 512 L 512 512 L 512 462 L 0 462 z "/>
    </symbol>

    <symbol id="text-align-right" viewBox="0 0 512 512">
      <path d="M 0 0 L 0 50 L 512 50 L 512 0 L 0 0 z M 169 115 L 169 166 L 512 166 L 512 115 L 169 115 z M 0 232 L 0 282 L 512 282 L 512 232 L 0 232 z M 102 347 L 102 397 L 512 397 L 512 347 L 102 347 z M 0 462 L 0 512 L 512 512 L 512 462 L 0 462 z "/>
    </symbol>

    <symbol id="text-align-last-justify" viewBox="0 0 512 512">
      <path d="M 0 0 L 0 50 L 512 50 L 512 0 L 0 0 z M 0 115 L 0 166 L 512 166 L 512 115 L 0 115 z M 0 232 L 0 282 L 512 282 L 512 232 L 0 232 z M 0 347 L 0 397 L 512 397 L 512 347 L 0 347 z M 0 442 L 0 512 L 184 512 L 184 442 L 0 442 z M 328 442 L 328 512 L 512 512 L 512 442 L 328 442 z "/>
    </symbol>

    <symbol id="text-align-last-left" viewBox="0 0 512 512">
      <path d="M 0 0 L 0 50 L 512 50 L 512 0 L 0 0 z M 0 115 L 0 166 L 512 166 L 512 115 L 0 115 z M 0 232 L 0 282 L 512 282 L 512 232 L 0 232 z M 0 347 L 0 397 L 512 397 L 512 347 L 0 347 z M 0 442 L 0 512 L 358 512 L 358 442 L 0 442 z "/>
    </symbol>

    <symbol id="text-align-last-center" viewBox="0 0 512 512">
      <path d="M 0 0 L 0 50 L 512 50 L 512 0 L 0 0 z M 0 115 L 0 166 L 512 166 L 512 115 L 0 115 z M 0 232 L 0 282 L 512 282 L 512 232 L 0 232 z M 0 347 L 0 397 L 512 397 L 512 347 L 0 347 z M 77 442 L 77 512 L 435 512 L 435 442 L 77 442 z "/>
    </symbol>

    <symbol id="text-align-last-right" viewBox="0 0 512 512">
      <path d="M 0 0 L 0 50 L 512 50 L 512 0 L 0 0 z M 0 115 L 0 166 L 512 166 L 512 115 L 0 115 z M 0 232 L 0 282 L 512 282 L 512 232 L 0 232 z M 0 347 L 0 397 L 512 397 L 512 347 L 0 347 z M 154 442 L 154 512 L 512 512 L 512 442 L 154 442 z "/>
    </symbol>

    
    <symbol id="text-transform-none" viewBox="0 0 1000 512">
      <path d="M 507 16.9 C 494 16.9 482 21.2 471 29.9 C 461 38.3 456 49.6 456 63.7 L 456 463 C 456 468 458 473 463 477 C 468 482 472 484 477 484 L 539 484 C 544 484 549 482 554 477 C 558 473 560 468 560 463 C 583 477 609 484 636 484 C 680 484 717 468 748 435 C 779 402 795 363 795 318 C 795 272 779 233 748 200 C 717 167 680 151 636 151 C 609 151 583 158 560 172 L 560 63.7 C 560 50.5 556 39.5 547 30.6 C 538 21.5 526 16.9 509 16.9 L 507 16.9 z M 191 34.9 C 176 34.9 160 40.3 145 51.1 C 130 61.9 119 76.4 112 94.7 L 3.07 412 C -2.7 429 -0.286 445 10.3 460 C 20.8 475 35.1 482 53.1 482 L 61 482 C 74.7 482 86.7 479 97 472 C 107 465 113 456 115 444 L 133 356 L 269 356 L 288 445 C 290 456 296 465 305 472 C 315 479 326 482 338 482 L 345 482 C 363 482 378 475 389 460 C 400 445 402 429 396 412 L 281 93.2 C 274 75.9 263 61.9 248 51.1 C 233 40.3 217 34.9 201 34.9 L 191 34.9 z M 198 128 L 256 290 L 139 290 L 198 128 z M 1030 154 C 977 154 932 170 897 203 C 862 236 844 275 844 320 C 844 366 862 405 897 438 C 932 470 977 486 1030 486 C 1.06e+03 486 1.09e+03 480 1100 467 L 1100 444 L 1100 443 C 1100 432 1.1e+03 422 1090 415 C 1.08e+03 408 1.07e+03 405 1060 406 C 1.05e+03 408 1.04e+03 409 1030 408 C 1.01e+03 408 988 399 971 381 C 954 364 946 343 946 318 L 946 314 C 946 298 950 283 958 269 C 965 256 975 247 988 242 C 1.01e+03 233 1030 231 1050 234 C 1070 237 1.08e+03 236 1090 229 C 1.1e+03 222 1100 212 1100 200 L 1100 197 C 1100 179 1.09e+03 167 1080 162 C 1060 157 1.04e+03 155 1030 154 z M 626 209 C 638 209 650 213 662 219 C 672 224 680 233 687 246 C 693 260 696 275 696 291 L 696 338 C 695 362 689 383 676 401 C 663 418 647 427 628 427 C 617 429 605 428 594 424 C 571 417 560 399 560 372 L 560 247 C 565 234 578 223 599 215 C 608 211 617 209 626 209 z "/>
    </symbol>

    <symbol id="text-transform-lowercase" viewBox="0 0 1000 512">
      <path d="M 425 16.9 C 411 16.9 399 21.2 389 29.9 C 379 38.3 374 49.6 374 63.7 L 374 463 C 374 468 376 473 380 477 C 385 482 389 484 394 484 L 456 484 C 461 484 466 482 471 477 C 475 473 477 468 477 463 C 501 477 527 484 554 484 C 597 484 634 468 665 435 C 696 402 712 363 712 318 C 712 272 696 233 665 200 C 634 167 597 151 554 151 C 527 151 501 158 477 172 L 477 63.7 C 478 50.5 474 39.5 465 30.6 C 456 21.5 443 16.9 426 16.9 L 425 16.9 z M 149 151 C 105 151 67.6 167 36.9 200 C 6.18 232 -9.18 271 -9.18 318 C -9.18 363 6.18 402 36.9 435 C 67.6 468 105 484 149 484 C 161 484 179 476 203 460 C 208 457 214 455 221 456 C 228 457 235 462 243 471 C 251 480 258 484 264 484 L 308 484 C 313 484 318 482 322 478 C 327 474 329 469 329 463 L 329 200 C 329 189 325 180 318 172 C 311 165 302 162 291 162 L 263 162 C 252 162 244 165 237 172 C 229 180 225 189 225 200 C 211 167 186 151 149 151 z M 942 154 C 893 154 850 170 814 203 C 779 236 761 275 761 320 C 761 366 779 405 814 438 C 850 470 893 486 942 486 C 980 486 1e+03 480 1010 467 C 1.02e+03 460 1020 453 1020 444 L 1020 443 C 1.02e+03 432 1.02e+03 422 1010 415 C 999 408 988 405 977 406 C 966 408 956 409 947 408 C 924 408 905 399 888 381 C 872 364 864 343 864 318 L 864 314 C 864 298 868 283 875 269 C 882 256 892 247 905 242 C 928 233 948 231 966 234 C 983 237 998 236 1010 229 C 1.02e+03 222 1020 212 1020 200 L 1020 197 C 1.02e+03 179 1.01e+03 167 994 162 C 977 157 960 155 942 154 z M 543 209 C 555 209 567 213 579 219 C 590 224 598 233 604 246 C 610 260 613 275 613 291 L 613 338 C 613 362 606 383 593 401 C 580 418 564 427 546 427 C 534 429 522 428 511 424 C 488 417 477 399 477 372 L 477 247 C 482 234 495 223 516 215 C 525 211 534 209 543 209 z M 159 210 C 169 210 178 212 187 215 C 208 222 220 233 225 247 L 225 369 C 225 396 214 413 191 421 C 180 424 168 425 157 424 C 138 424 122 415 109 398 C 96 381 89.5 359 89.5 334 L 89.5 311 C 89.5 260 101 229 123 219 C 135 213 148 210 159 210 z "/>
    </symbol>
    
    <symbol id="text-transform-uppercase" viewBox="0 0 1000 512">
      <path d="M 1.1e+03 26.1 C 1.1e+03 26.1 1.09e+03 26.4 1090 27 C 1.02e+03 33 968 56.6 925 97.9 C 882 139 860 192 860 258 C 860 324 880 378 920 419 C 959 460 1016 482 1090 486 L 1100 487 L 1110 487 C 1.12e+03 487 1120 487 1120 486 C 1.15e+03 485 1170 481 1190 476 C 1210 471 1220 458 1220 437 C 1220 416 1210 403 1190 396 C 1.18e+03 393 1.16e+03 395 1150 401 C 1.14e+03 406 1.12e+03 409 1110 409 C 1070 409 1.04e+03 394 1010 365 C 983 335 970 299 970 257 C 971 215 984 179 1010 148 C 1.04e+03 118 1070 103 1110 103 C 1.12e+03 103 1.14e+03 106 1150 112 C 1170 119 1.18e+03 121 1190 116 C 1210 110 1220 97.4 1220 78.1 C 1220 58 1210 45.3 1190 40 C 1170 33 1150 28.9 1130 27.7 C 1.12e+03 26.3 1110 25.8 1110 26.3 C 1.11e+03 26.1 1105 26 1.1e+03 26.1 z M 512 33.5 C 499 33.5 488 37.8 479 46.4 C 470 55.1 465 65.9 465 78.8 L 465 439 C 465 452 470 463 480 472 C 491 481 502 485 515 485 C 558 483 580 482 583 482 C 676 482 738 470 771 445 C 804 421 821 390 821 353 C 821 300 795 266 744 251 C 741 250 739 246 739 240 C 739 237 740 235 743 234 C 784 215 805 186 805 147 C 805 107 786 78.3 748 59.8 C 719 44.2 671 36 605 35.3 C 568 34.8 537 34.2 512 33.5 z M 191 34.9 C 176 34.9 160 40.3 145 51.1 C 130 61.9 119 76.4 112 94.7 L 3.07 412 C -2.7 429 -0.286 445 10.3 460 C 20.8 475 35.1 482 53.1 482 L 61 482 C 74.7 482 86.7 479 97 472 C 107 465 113 456 115 444 L 133 356 L 269 356 L 288 445 C 290 456 296 465 305 472 C 315 479 326 482 338 482 L 345 482 C 363 482 378 475 389 460 C 400 445 402 429 396 412 L 281 93.2 C 274 75.9 263 61.9 248 51.1 C 233 40.3 217 34.9 201 34.9 L 191 34.9 z M 616 102 C 663 102 686 123 687 164 C 688 186 681 201 667 210 C 653 219 633 223 606 223 L 587 223 C 582 222 579 221 576 219 C 573 216 572 213 572 210 L 572 116 C 572 107 577 103 586 103 C 595 102 605 102 616 102 z M 198 128 L 256 290 L 139 290 L 198 128 z M 587 277 L 610 277 C 639 277 662 282 680 291 C 698 300 707 319 707 347 C 707 375 698 394 681 403 C 663 412 644 417 624 417 L 588 417 C 583 417 580 416 577 413 C 574 410 572 407 572 404 L 572 291 C 572 287 574 284 577 281 C 580 278 584 277 587 277 z "/>
    </symbol>

    <symbol id="text-transform-capitalize" viewBox="0 0 1000 512">
      <path d="M 507 16.9 C 494 16.9 482 21.2 471 29.9 C 461 38.3 456 49.6 456 63.7 L 456 463 C 456 468 458 473 463 477 C 468 482 472 484 477 484 L 539 484 C 544 484 549 482 554 477 C 558 473 560 468 560 463 C 583 477 609 484 636 484 C 680 484 717 468 748 435 C 779 402 795 363 795 318 C 795 272 779 233 748 200 C 717 167 680 151 636 151 C 609 151 583 158 560 172 L 560 63.7 C 560 50.5 556 39.5 547 30.6 C 538 21.5 526 16.9 509 16.9 L 507 16.9 z M 1.09e+03 26.1 C 1.09e+03 26.1 1.08e+03 26.4 1080 27 C 1.01e+03 33 958 56.6 915 97.9 C 872 139 851 192 851 258 C 851 324 871 378 910 419 C 950 460 1.01e+03 482 1080 486 L 1090 487 L 1100 487 C 1.11e+03 487 1110 487 1110 486 C 1.14e+03 485 1160 481 1180 476 C 1200 471 1210 458 1210 437 C 1210 416 1200 403 1180 396 C 1.17e+03 393 1.15e+03 395 1140 401 C 1.13e+03 406 1.11e+03 409 1100 409 C 1060 409 1.03e+03 394 1000 365 C 974 335 961 299 961 257 C 961 215 974 179 1000 148 C 1.03e+03 118 1060 103 1100 103 C 1.11e+03 103 1.13e+03 106 1140 112 C 1160 119 1.17e+03 121 1180 116 C 1200 110 1210 97.4 1210 78.1 C 1210 58 1200 45.3 1180 40 C 1160 33 1140 28.9 1120 27.7 C 1.11e+03 26.3 1100 25.8 1100 26.3 C 1.1e+03 26.1 1095 26 1.09e+03 26.1 z M 191 34.9 C 176 34.9 160 40.3 145 51.1 C 130 61.9 119 76.4 112 94.7 L 3.07 412 C -2.7 429 -0.286 445 10.3 460 C 20.8 475 35.1 482 53.1 482 L 61 482 C 74.7 482 86.7 479 97 472 C 107 465 113 456 115 444 L 133 356 L 269 356 L 288 445 C 290 456 296 465 305 472 C 315 479 326 482 338 482 L 345 482 C 363 482 378 475 389 460 C 400 445 402 429 396 412 L 281 93.2 C 274 75.9 263 61.9 248 51.1 C 233 40.3 217 34.9 201 34.9 L 191 34.9 z M 198 128 L 256 290 L 139 290 L 198 128 z M 626 209 C 638 209 650 213 662 219 C 672 224 680 233 687 246 C 693 260 696 275 696 291 L 696 338 C 695 362 689 383 676 401 C 663 418 647 427 628 427 C 617 429 605 428 594 424 C 571 417 560 399 560 372 L 560 247 C 565 234 578 223 599 215 C 608 211 617 209 626 209 z "/>
    </symbol>

    <symbol id="text-decoration" viewBox="0 0 512 512">
      <path d="M 43.6 -0.0527 L 34.2 175 C 28.6 172 23.2 169 17.8 166 C 13.1 163 7.28 165 4.64 170 L 1.36 175 C -1.36 180 0.165 186 4.96 189 C 40.6 209 80.8 223 124 234 L 116 252 L 110 250 C 100 246 88.8 250 84.8 260 L 67.8 301 C 53.2 306 40.2 317 31.4 338 C 15 377 37.8 442 48.4 446 C 59 450 121 422 138 382 C 146 362 146 345 138 331 L 156 290 C 160 280 155 269 146 265 L 139 262 L 150 239 C 180 245 211 248 243 249 L 243 267 L 237 267 C 226 267 218 276 218 286 L 218 331 C 206 341 198 356 198 379 C 198 422 245 472 256 472 C 267 472 314 422 314 379 C 314 356 306 341 294 331 L 294 286 C 294 276 286 267 275 267 L 269 267 L 269 249 C 301 248 332 245 362 239 L 372 262 L 366 265 C 357 269 352 280 356 290 L 374 331 C 366 345 366 362 374 382 C 391 422 453 450 464 446 C 474 442 497 377 481 338 C 472 317 459 306 444 301 L 427 260 C 423 250 412 246 402 250 L 396 252 L 388 234 C 431 223 471 208 507 189 C 512 186 514 180 510 175 L 507 170 C 505 165 499 164 494 166 C 489 169 483 172 478 174 L 468 -0.0527 L 43.6 -0.0527 z M 183 33.3 C 207 33.3 217 41.1 217 58.8 L 217 197 C 245 203 267 203 296 198 L 296 58.8 C 296 41.1 306 33.3 329 33.3 C 373 33.3 407 57.4 425 99.9 C 435 124 442 152 448 188 C 390 211 324 223 256 223 C 188 223 122 211 64.8 188 C 69.4 157 74.8 133 82.6 112 C 101 59.5 135 33.3 183 33.3 z M 106 276 L 130 286 L 119 310 C 116 308 112 306 108 305 C 104 302 100 302 96 301 L 106 276 z M 406 276 L 416 301 C 412 302 408 302 404 305 C 400 306 396 308 393 310 L 382 286 L 406 276 z M 243 293 L 269 293 L 269 319 C 265 319 261 318 256 318 C 252 318 247 319 243 319 L 243 293 z M 82.6 324 C 87.4 324 92.6 325 98.4 328 C 118 337 123 350 114 373 C 106 393 77 410 60.2 418 C 53.6 401 46.6 368 55 348 C 61.6 332 70.5 324 82.6 324 z M 429 324 C 441 324 451 332 457 348 C 466 368 458 401 452 418 C 435 410 406 393 398 373 C 389 350 394 337 414 328 C 420 325 425 324 429 324 z M 256 344 C 278 344 288 355 288 379 C 288 401 269 428 256 442 C 243 428 224 401 224 379 C 224 355 234 344 256 344 z M 296 464 C 281 486 262 498 256 498 C 250 498 232 487 217 465 L 212 469 C 207 476 193 479 153 479 L 134 479 L 134 512 L 378 512 L 378 479 L 359 479 C 319 479 306 476 300 469 L 296 464 z "/>
    </symbol>

    <symbol id="text-decoration-line-through" viewBox="0 0 512 512">
      <path d="M496 224H293.9l-87.17-26.83A43.55 43.55 0 0 1 219.55 112h66.79A49.89 49.89 0 0 1 331 139.58a16 16 0 0 0 21.46 7.15l42.94-21.47a16 16 0 0 0 7.16-21.46l-.53-1A128 128 0 0 0 287.51 32h-68a123.68 123.68 0 0 0-123 135.64c2 20.89 10.1 39.83 21.78 56.36H16a16 16 0 0 0-16 16v32a16 16 0 0 0 16 16h480a16 16 0 0 0 16-16v-32a16 16 0 0 0-16-16zm-180.24 96A43 43 0 0 1 336 356.45 43.59 43.59 0 0 1 292.45 400h-66.79A49.89 49.89 0 0 1 181 372.42a16 16 0 0 0-21.46-7.15l-42.94 21.47a16 16 0 0 0-7.16 21.46l.53 1A128 128 0 0 0 224.49 480h68a123.68 123.68 0 0 0 123-135.64 114.25 114.25 0 0 0-5.34-24.36z" />
    </symbol>

    <symbol id="text-decoration-overline" viewBox="0 0 448 512">
      <path d="M432 0H16A16 16 0 0 0 0 16v32a16 16 0 0 0 16 16h416a16 16 0 0 0 16-16V16a16 16 0 0 0-16-16zM232.19 128h-16.38A167.81 167.81 0 0 0 48 295.81v48.38A167.81 167.81 0 0 0 215.81 512h16.38A167.81 167.81 0 0 0 400 344.19v-48.38A167.81 167.81 0 0 0 232.19 128zM320 344.19A87.91 87.91 0 0 1 232.19 432h-16.38A87.91 87.91 0 0 1 128 344.19v-48.38A87.91 87.91 0 0 1 215.81 208h16.38A87.91 87.91 0 0 1 320 295.81z" />
    </symbol>

    <symbol id="text-decoration-underline" viewBox="0 0 448 512">
      <path d="M32 64h32v160c0 88.22 71.78 160 160 160s160-71.78 160-160V64h32a16 16 0 0 0 16-16V16a16 16 0 0 0-16-16H272a16 16 0 0 0-16 16v32a16 16 0 0 0 16 16h32v160a80 80 0 0 1-160 0V64h32a16 16 0 0 0 16-16V16a16 16 0 0 0-16-16H32a16 16 0 0 0-16 16v32a16 16 0 0 0 16 16zm400 384H16a16 16 0 0 0-16 16v32a16 16 0 0 0 16 16h416a16 16 0 0 0 16-16v-32a16 16 0 0 0-16-16z" />
    </symbol>

    <symbol id="text-decoration-none" viewBox="0 0 448 512">
      <path d="M432 32a16 16 0 0 1 16 16v96a16 16 0 0 1-16 16h-32a16 16 0 0 1-16-16v-32H264v304h40a16 16 0 0 1 16 16v32a16 16 0 0 1-16 16H144a16 16 0 0 1-16-16v-32a16 16 0 0 1 16-16h40V112H64v32a16 16 0 0 1-16 16H16a16 16 0 0 1-16-16V48a16 16 0 0 1 16-16z" />
    </symbol>

    <symbol id="text-decoration-thickness" viewBox="0 0 448 512">
      <path d="M 48 0 L 48 32 L 464 32 L 464 0 L 48 0 z M 256 59.873047 C 250.59372 59.873047 245.19074 61.253724 240.36523 64 L 240.00195 64 L 240.00195 64.201172 C 237.74763 65.524239 235.62435 67.15029 233.69336 69.080078 C 233.69136 69.082378 233.68855 69.083537 233.68555 69.085938 L 192.74219 109.63086 A 16.0016 16.0016 0 1 0 215.25781 132.36914 L 240.00195 107.86719 L 240.00195 404.37305 L 215.31445 379.68555 A 16.0016 16.0016 0 0 0 203.83203 374.83789 A 16.0016 16.0016 0 0 0 192.68555 402.31445 L 233.68555 443.31445 C 245.97094 455.59985 266.02906 455.59985 278.31445 443.31445 L 319.31445 402.31445 A 16.0016 16.0016 0 1 0 296.68555 379.68555 L 271.99805 404.37305 L 271.99805 107.86719 L 296.74219 132.36914 A 16.0016 16.0016 0 1 0 319.25781 109.63086 L 278.30664 69.080078 C 276.37565 67.15029 274.25237 65.524239 271.99805 64.201172 L 271.99805 64 L 271.63477 64 C 266.80926 61.253724 261.40628 59.873047 256 59.873047 z M 48 480 L 48 512 L 464 512 L 464 480 L 48 480 z " />
    </symbol>
    
    <symbol id="font-size" viewBox="0 0 576 512">
      <path d="M304 32H16A16 16 0 0 0 0 48v96a16 16 0 0 0 16 16h32a16 16 0 0 0 16-16v-32h56v304H80a16 16 0 0 0-16 16v32a16 16 0 0 0 16 16h160a16 16 0 0 0 16-16v-32a16 16 0 0 0-16-16h-40V112h56v32a16 16 0 0 0 16 16h32a16 16 0 0 0 16-16V48a16 16 0 0 0-16-16zm256 336h-48V144h48c14.31 0 21.33-17.31 11.31-27.31l-80-80a16 16 0 0 0-22.62 0l-80 80C379.36 126 384.36 144 400 144h48v224h-48c-14.31 0-21.32 17.31-11.31 27.31l80 80a16 16 0 0 0 22.62 0l80-80C580.64 386 575.64 368 560 368z" />
    </symbol>

    <symbol id="word-spacing" viewBox="0 0 512 512">
      <path  d="M 307 19.8 C 296 19.7 288 24 282 32.8 C 275 41.7 274 51.2 277 61.5 L 340 252 C 343 263 350 271 359 278 C 368 284 379 287 390 287 L 396 287 C 405 287 415 284 425 278 C 435 272 442 264 445 253 L 510 61.9 C 513 51.5 512 41.9 506 33 C 499 24.2 491 19.8 480 19.8 C 469 19.7 461 21.7 455 26 C 449 30.3 445 35.5 444 41.6 L 420 136 C 404 193 396 224 395 229 L 393 229 C 390 212 381 181 368 134 L 344 42 C 342 35.5 338 30.1 333 26 C 327 21.9 321 19.8 314 19.8 L 307 19.8 z M 114 21.3 C 104 21.3 95 24.5 85.9 30.9 C 76.8 37.3 70.3 45.9 66.6 56.8 L 1.89 245 C -1.53 255 -0.107 264 6.16 273 C 12.5 282 20.9 287 31.6 287 L 36.3 287 C 44.4 287 51.6 285 57.7 281 C 63.6 276 67.2 271 68.5 264 L 78.8 212 L 160 212 L 171 265 C 172 271 176 276 181 280 C 187 285 193 287 200 287 L 205 287 C 216 287 224 282 231 273 C 237 264 238 255 235 245 L 167 55.9 C 163 45.6 156 37.3 147 30.9 C 138 24.5 129 21.3 120 21.3 L 114 21.3 z M 117 76.6 L 152 173 L 82.6 173 L 117 76.6 z M 384 320 C 376 320 368 326 368 336 L 368 384 L 144 384 L 144 336 C 144 322 127 315 117 325 L 37 405 A 16 16 0 0 0 37 427 L 117 507 C 126 517 144 512 144 496 L 144 448 L 368 448 L 368 496 C 368 510 385 517 395 507 L 475 427 A 16 16 0 0 0 475 405 L 395 325 C 392 322 388 320 384 320 z " />
    </symbol>

    
    <symbol id="line-height" viewBox="0 0 640 512">
      <path d="M626.29 224H269.71c-7.57 0-13.71 7.16-13.71 16v32c0 8.84 6.14 16 13.71 16h356.58c7.57 0 13.71-7.16 13.71-16v-32c0-8.84-6.14-16-13.71-16zm0 160H269.71c-7.57 0-13.71 7.16-13.71 16v32c0 8.84 6.14 16 13.71 16h356.58c7.57 0 13.71-7.16 13.71-16v-32c0-8.84-6.14-16-13.71-16zm0-320H269.71C262.14 64 256 71.16 256 80v32c0 8.84 6.14 16 13.71 16h356.58c7.57 0 13.71-7.16 13.71-16V80c0-8.84-6.14-16-13.71-16zM176 144c14.31 0 21.33-17.31 11.31-27.31l-80-80a16 16 0 0 0-22.62 0l-80 80C-4.64 126 .36 144 16 144h48v224H16c-14.29 0-21.31 17.31-11.29 27.31l80 80a16 16 0 0 0 22.62 0l80-80C196.64 386 191.64 368 176 368h-48V144z" />
    </symbol>

    <symbol id="kerning" viewBox="0 0 640 512">
      <path d="M416.54 0h-17A8 8 0 0 0 392 5.32l-176.28 496a8 8 0 0 0 7.55 10.68h17a8 8 0 0 0 7.54-5.32l176.28-496A8 8 0 0 0 416.54 0zM304 96h-50.62a16 16 0 0 0-15.16 10.89L160 306.68 81.78 106.89A16 16 0 0 0 66.62 96H16A16 16 0 0 0 .85 117.11l105.27 277.2a32 32 0 0 0 30.3 21.69h47.16a32 32 0 0 0 30.3-21.69l105.27-277.2A16 16 0 0 0 304 96zm335.15 298.89l-105.27-277.2A32 32 0 0 0 503.58 96h-47.16a32 32 0 0 0-30.3 21.69l-105.27 277.2A16 16 0 0 0 336 416h50.61a16 16 0 0 0 15.16-10.89L416.31 368h127.38l14.53 37.11A16 16 0 0 0 573.38 416H624a16 16 0 0 0 15.15-21.11zM447.63 288L480 205.32 512.37 288z" />
    </symbol>

    <symbol id="text-shadow" viewBox="0 0 512 512">
      <path d="m 201,513 c -5,-3 -9,-8 -10,-14 -1,-9 -7,-8 83,-8 87,0 83,0 87,-6 2,-3 2,-5 2,-19 0,-20 1,-21 10,-18 5,1 11,6 13,11 1,4 1,8 1,24 0,19 -1,20 -3,24 -2,2 -5,5 -7,6 -5,2 -5,2 -88,2 -83,0 -84,0 -88,-2 z M 308,429 V 125 l 122,-1 c 1,1 1,5 1,11 0,9 0,10 -2,11 l -98,1 -1,283 c -1,1 -5,1 -11,1 -9,0 -10,0 -11,-2 z M 76.8,194 c -7.6,-2 -12.4,-8 -13.4,-15 -1.1,-8 -0.6,-8 17.5,-8 17.5,0 20.1,-1 24.1,-7 2,-3 2,-5 2,-21 0,-12 0,-18 1,-19 1,-1 16,-1 61,-1 69,0 62,-1 62,12 0,7 0,9 -2,10 -1,2 -7,2 -50,2 h -48 v 15 c 0,9 -1,17 -1,19 -2,6 -7,11 -13,13 -4,1 -36.1,1 -40.2,0 z m 383.2,0 c -5,-2 -9,-5 -10,-9 -2,-4 -3,-10 -2,-12 1,-2 2,-2 17,-2 17,0 21,-1 24,-6 2,-4 2,-5 2,-51 0,-38.3 0,-48 1,-49.5 1,-1.4 3,-1.7 6,-1.3 7,0.7 12,4.6 15,10.1 2,4.4 2,5 2,56.7 v 53 l -3,3 c -1,2 -4,5 -6,6 -4,2 -6,3 -23,3 -15,0 -20,0 -23,-1 z"/>
    </symbol>

    <symbol id="margin-settings" viewBox="0 0 512 512">
      <path d="M -16 -16 L -16 16 L 16 16 L 16 -16 L -16 -16 z M 16 16 L 16 48 L 48 48 L 48 16 L 16 16 z M 48 16 L 80 16 L 80 -16 L 48 -16 L 48 16 z M 80 16 L 80 48 L 112 48 L 112 16 L 80 16 z M 112 16 L 144 16 L 144 -16 L 112 -16 L 112 16 z M 144 16 L 144 48 L 176 48 L 176 16 L 144 16 z M 176 16 L 208 16 L 208 -16 L 176 -16 L 176 16 z M 208 16 L 208 48 L 240 48 L 240 16 L 208 16 z M 240 16 L 272 16 L 272 -16 L 240 -16 L 240 16 z M 272 16 L 272 48 L 304 48 L 304 16 L 272 16 z M 304 16 L 336 16 L 336 -16 L 304 -16 L 304 16 z M 336 16 L 336 48 L 368 48 L 368 16 L 336 16 z M 368 16 L 400 16 L 400 -16 L 368 -16 L 368 16 z M 400 16 L 400 48 L 432 48 L 432 16 L 400 16 z M 432 16 L 464 16 L 464 -16 L 432 -16 L 432 16 z M 464 16 L 464 48 L 496 48 L 496 16 L 464 16 z M 496 16 L 528 16 L 528 -16 L 496 -16 L 496 16 z M 496 48 L 496 80 L 528 80 L 528 48 L 496 48 z M 496 80 L 464 80 L 464 112 L 496 112 L 496 80 z M 496 112 L 496 144 L 528 144 L 528 112 L 496 112 z M 496 144 L 464 144 L 464 176 L 496 176 L 496 144 z M 496 176 L 496 208 L 528 208 L 528 176 L 496 176 z M 496 208 L 464 208 L 464 240 L 496 240 L 496 208 z M 496 240 L 496 272 L 528 272 L 528 240 L 496 240 z M 496 272 L 464 272 L 464 304 L 496 304 L 496 272 z M 496 304 L 496 336 L 528 336 L 528 304 L 496 304 z M 496 336 L 464 336 L 464 368 L 496 368 L 496 336 z M 496 368 L 496 400 L 528 400 L 528 368 L 496 368 z M 496 400 L 464 400 L 464 432 L 496 432 L 496 400 z M 496 432 L 496 464 L 528 464 L 528 432 L 496 432 z M 496 464 L 464 464 L 464 496 L 496 496 L 496 464 z M 496 496 L 496 528 L 528 528 L 528 496 L 496 496 z M 464 496 L 432 496 L 432 528 L 464 528 L 464 496 z M 432 496 L 432 464 L 400 464 L 400 496 L 432 496 z M 400 496 L 368 496 L 368 528 L 400 528 L 400 496 z M 368 496 L 368 464 L 336 464 L 336 496 L 368 496 z M 336 496 L 304 496 L 304 528 L 336 528 L 336 496 z M 304 496 L 304 464 L 272 464 L 272 496 L 304 496 z M 272 496 L 240 496 L 240 528 L 272 528 L 272 496 z M 240 496 L 240 464 L 208 464 L 208 496 L 240 496 z M 208 496 L 176 496 L 176 528 L 208 528 L 208 496 z M 176 496 L 176 464 L 144 464 L 144 496 L 176 496 z M 144 496 L 112 496 L 112 528 L 144 528 L 144 496 z M 112 496 L 112 464 L 80 464 L 80 496 L 112 496 z M 80 496 L 48 496 L 48 528 L 80 528 L 80 496 z M 48 496 L 48 464 L 16 464 L 16 496 L 48 496 z M 16 496 L -16 496 L -16 528 L 16 528 L 16 496 z M 16 464 L 16 432 L -16 432 L -16 464 L 16 464 z M 16 432 L 48 432 L 48 400 L 16 400 L 16 432 z M 16 400 L 16 368 L -16 368 L -16 400 L 16 400 z M 16 368 L 48 368 L 48 336 L 16 336 L 16 368 z M 16 336 L 16 304 L -16 304 L -16 336 L 16 336 z M 16 304 L 48 304 L 48 272 L 16 272 L 16 304 z M 16 272 L 16 240 L -16 240 L -16 272 L 16 272 z M 16 240 L 48 240 L 48 210 L 64 210 L 64 240 L 48 240 L 48 272 L 64 272 L 64 304 L 48 304 L 48 336 L 64 336 L 64 368 L 48 368 L 48 400 L 64 400 L 64 432 L 48 432 L 48 464 L 80 464 L 80 448 L 112 448 L 112 464 L 144 464 L 144 448 L 176 448 L 176 464 L 208 464 L 208 448 L 240 448 L 240 464 L 272 464 L 272 448 L 304 448 L 304 464 L 336 464 L 336 448 L 368 448 L 368 464 L 400 464 L 400 448 L 432 448 L 432 464 L 464 464 L 464 432 L 448 432 L 448 400 L 464 400 L 464 368 L 448 368 L 448 336 L 464 336 L 464 304 L 448 304 L 448 272 L 464 272 L 464 240 L 448 240 L 448 208 L 464 208 L 464 176 L 448 176 L 448 144 L 464 144 L 464 112 L 448 112 L 448 80 L 464 80 L 464 48 L 432 48 L 432 64 L 400 64 L 400 48 L 368 48 L 368 64 L 336 64 L 336 48 L 304 48 L 304 64 L 272 64 L 272 48 L 240 48 L 240 64 L 208 64 L 208 48 L 176 48 L 176 64 L 144 64 L 144 48 L 112 48 L 112 64 L 80 64 L 80 48 L 48 48 L 48 80 L 64 80 L 64 114 L 48 114 L 48 144 L 16 144 L 16 176 L 48 176 L 48 146 L 64 146 L 64 178 L 48 178 L 48 208 L 16 208 L 16 240 z M 16 208 L 16 176 L -16 176 L -16 208 L 16 208 z M 16 144 L 16 112 L -16 112 L -16 144 L 16 144 z M 16 112 L 48 112 L 48 80 L 16 80 L 16 112 z M 16 80 L 16 48 L -16 48 L -16 80 L 16 80 z M 94.1 94.1 L 418 94.1 L 418 418 L 94.1 418 L 94.1 94.1 z " />
    </symbol>
    
    <symbol id="padding-settings" viewBox="0 0 512 512">
      <path d="M 47.9 48.2 L 47.9 464 L 464 464 L 464 48.2 L 47.9 48.2 z M 98 79.8 L 128 79.8 L 128 96 L 160 96 L 160 79.8 L 192 79.8 L 192 96 L 224 96 L 224 79.8 L 256 79.8 L 256 96 L 288 96 L 288 79.8 L 320 79.8 L 320 96 L 352 96 L 352 79.8 L 384 79.8 L 384 96 L 416 96 L 416 79.8 L 432 79.8 L 432 96 L 416 96 L 416 128 L 432 128 L 432 160 L 416 160 L 416 192 L 432 192 L 432 224 L 416 224 L 416 256 L 432 256 L 432 288 L 416 288 L 416 320 L 432 320 L 432 352 L 416 352 L 416 384 L 432 384 L 432 416 L 416 416 L 416 432 L 384 432 L 384 416 L 352 416 L 352 432 L 320 432 L 320 416 L 288 416 L 288 432 L 256 432 L 256 416 L 224 416 L 224 432 L 192 432 L 192 416 L 160 416 L 160 432 L 128 432 L 128 416 L 96 416 L 96 432 L 80.3 432 L 80.3 416 L 96 416 L 96 384 L 80.3 384 L 80.3 352 L 96 352 L 96 320 L 80.3 320 L 80.3 288 L 96 288 L 96 256 L 80.3 256 L 80.3 224 L 96 224 L 96 192 L 80.3 192 L 80.3 160 L 96 160 L 96 128 L 80.3 128 L 80.3 98 L 96 98 L 96 128 L 128 128 L 128 96 L 98 96 L 98 79.8 z M 96 160 L 96 192 L 128 192 L 128 160 L 96 160 z M 96 224 L 96 256 L 128 256 L 128 224 L 96 224 z M 96 288 L 96 320 L 128 320 L 128 288 L 96 288 z M 96 352 L 96 384 L 128 384 L 128 352 L 96 352 z M 128 384 L 128 416 L 160 416 L 160 384 L 128 384 z M 192 416 L 224 416 L 224 384 L 192 384 L 192 416 z M 256 416 L 288 416 L 288 384 L 256 384 L 256 416 z M 320 416 L 352 416 L 352 384 L 320 384 L 320 416 z M 384 416 L 416 416 L 416 384 L 384 384 L 384 416 z M 416 352 L 416 320 L 384 320 L 384 352 L 416 352 z M 416 288 L 416 256 L 384 256 L 384 288 L 416 288 z M 416 224 L 416 192 L 384 192 L 384 224 L 416 224 z M 416 160 L 416 128 L 384 128 L 384 160 L 416 160 z M 384 128 L 384 96 L 352 96 L 352 128 L 384 128 z M 320 96 L 288 96 L 288 128 L 320 128 L 320 96 z M 256 96 L 224 96 L 224 128 L 256 128 L 256 96 z M 192 96 L 160 96 L 160 128 L 192 128 L 192 96 z "/>
    </symbol>

    <symbol id="border-settings" viewBox="0 0 512 512">
      <path d="M 63.8,47.8 A 16,16 0 0 0 52.7,52.4 16,16 0 0 0 52.4,52.8 16,16 0 0 0 48,66.6 V 96 a 16,16 0 1 0 32,0 V 80 H 96 A 16,16 0 1 0 96,48 H 66.6 A 16,16 0 0 0 63.8,47.8 Z M 160,48 a 16,16 0 1 0 0,32 h 64 a 16,16 0 1 0 0,-32 z m 128,0 a 16,16 0 1 0 0,32 h 64 a 16,16 0 1 0 0,-32 z m 128,0 a 16,16 0 1 0 0,32 h 16 v 16 a 16,16 0 1 0 32,0 V 64 A 16,16 0 0 0 448,48 Z M 63.8,144 A 16,16 0 0 0 48,160 v 64 a 16,16 0 1 0 32,0 V 160 A 16,16 0 0 0 63.8,144 Z m 384.2,0 a 16,16 0 0 0 -16,16 v 64 a 16,16 0 1 0 32,0 V 160 A 16,16 0 0 0 448,144 Z M 63.8,272 A 16,16 0 0 0 48,288 v 64 a 16,16 0 1 0 32,0 V 288 A 16,16 0 0 0 63.8,272 Z m 384.2,0 a 16,16 0 0 0 -16,16 v 64 a 16,16 0 1 0 32,0 V 288 A 16,16 0 0 0 448,272 Z M 63.8,400 A 16,16 0 0 0 48,416 v 32 a 16,16 0 0 0 16,16 h 32 a 16,16 0 1 0 0,-32 H 80 V 416 A 16,16 0 0 0 63.8,400 Z m 384.2,0 a 16,16 0 0 0 -16,16 v 16 h -16 a 16,16 0 1 0 0,32 h 32 a 16,16 0 0 0 16,-16 v -32 a 16,16 0 0 0 -16,-16 z m -288,32 a 16,16 0 1 0 0,32 h 64 a 16,16 0 1 0 0,-32 z m 128,0 a 16,16 0 1 0 0,32 h 64 a 16,16 0 1 0 0,-32 z"/>
    </symbol>

    <symbol id="border-radius-settings" viewBox="0 0 512 512">
      <path d="M 128 48 C 84 48 48 84 48 128 L 48 240 L 80 240 L 80 128 C 80 101 101 80 128 80 L 240 80 L 240 48 L 128 48 z M 272 48 L 272 80 L 384 80 C 411 80 432 101 432 128 L 432 240 L 464 240 L 464 128 C 464 84 428 48 384 48 L 272 48 z M 48 272 L 48 384 C 48 428 84 464 128 464 L 240 464 L 240 432 L 128 432 C 101 432 80 411 80 384 L 80 272 L 48 272 z M 432 272 L 432 384 C 432 411 411 432 384 432 L 272 432 L 272 464 L 384 464 C 428 464 464 428 464 384 L 464 272 L 432 272 z "/>
    </symbol>

    <symbol id="box-shadow-settings" viewBox="0 0 512 512">
      <path d="m 48,48 v 32 352 32 h 32 352 32 V 432 80 48 H 432 80 Z M 80,80 H 432 V 432 H 80 Z m 64,64 v 32 h 32 v -32 z m 32,32 v 32 h 32 v -32 z m 32,0 h 32 v -32 h -32 z m 32,0 v 32 h 32 v -32 z m 32,0 h 32 v -32 h -32 z m 32,0 v 32 h 32 v -32 z m 32,0 h 32 v -32 h -32 z m 32,0 v 32 h 32 v -32 z m 0,32 h -32 v 32 h 32 z m 0,32 v 32 h 32 v -32 z m 0,32 h -32 v 32 h 32 z m 0,32 v 32 h 32 v -32 z m 0,32 h -32 v 32 h 32 z m 0,32 v 32 h 32 v -32 z m -32,0 h -32 v 32 h 32 z m -32,0 v -32 h -32 v 32 z m -32,0 h -32 v 32 h 32 z m -32,0 v -32 h -32 v 32 z m -32,0 h -32 v 32 h 32 z m -32,0 v -32 h -32 v 32 z m 0,-32 h 32 v -32 h -32 z m 0,-32 v -32 h -32 v 32 z m 0,-32 h 32 v -32 h -32 z m 0,-32 v -32 h -32 v 32 z m 32,0 h 32 v -32 h -32 z m 32,0 v 32 h 32 v -32 z m 32,0 h 32 v -32 h -32 z m 32,0 v 32 h 32 v -32 z m 0,32 h -32 v 32 h 32 z m 0,32 v 32 h 32 v -32 z m -32,0 h -32 v 32 h 32 z m -32,0 v -32 h -32 v 32 z M 528,144 v 32 h 32 v -32 z m 0,32 h -32 v 32 h 32 z m 0,32 v 32 h 32 v -32 z m 0,32 h -32 v 32 h 32 z m 0,32 v 32 h 32 v -32 z m 0,32 h -32 v 32 h 32 z m 0,32 v 32 h 32 v -32 z m 0,32 h -32 v 32 h 32 z m 0,32 v 32 h 32 v -32 z m 0,32 h -32 v 32 h 32 z m 0,32 v 32 h 32 v -32 z m 0,32 h -32 v 32 h 32 z m 0,32 v 32 h 32 v -32 z m -32,0 h -32 v 32 h 32 z m -32,0 v -32 h -32 v 32 z m -32,0 h -32 v 32 h 32 z m -32,0 v -32 h -32 v 32 z m -32,0 h -32 v 32 h 32 z m -32,0 v -32 h -32 v 32 z m -32,0 h -32 v 32 h 32 z m -32,0 v -32 h -32 v 32 z m -32,0 h -32 v 32 h 32 z m -32,0 v -32 h -32 v 32 z m -32,0 h -32 v 32 h 32 z" />
    </symbol>
    
    <symbol id="background-settings" viewBox="0 0 512 512">
        <path d="M 32,32 V 96 H 96 V 32 Z m 64,64 v 64 h 64 V 96 Z m 64,0 h 64 V 32 h -64 z m 64,0 v 64 h 64 V 96 Z m 64,0 h 64 V 32 h -64 z m 64,0 v 64 h 64 V 96 Z m 64,0 h 64 V 32 h -64 z m 0,64 v 64 h 64 v -64 z m 0,64 h -64 v 64 h 64 z m 0,64 v 64 h 64 v -64 z m 0,64 h -64 v 64 h 62 v 64 h 64 v -64 h -62 z m -64,64 h -64 v 64 h 64 z m -64,0 v -64 h -64 v 64 z m -64,0 h -64 v 64 h 64 z m -64,0 V 352 H 96 v 64 z m -64,0 H 32 v 64 h 64 z m 0,-64 V 288 H 32 v 64 z m 0,-64 h 64 V 224 H 96 Z m 0,-64 V 160 H 32 v 64 z m 64,0 h 64 v -64 h -64 z m 64,0 v 64 h 64 v -64 z m 64,0 h 64 v -64 h -64 z m 0,64 v 64 h 64 v -64 z m -64,0 h -64 v 64 h 64 z"/>
    </symbol>
    
    <symbol id="opacity-settings" viewBox="0 0 512 512">
      <path d="M 48 48 L 48 64 L 48 464 L 464 464 L 464 48 L 48 48 z M 80 80 L 272 80 L 272 112 L 304 112 L 304 80 L 336 80 L 336 112 L 368 112 L 368 80 L 400 80 L 400 112 L 432 112 L 432 144 L 400 144 L 400 176 L 432 176 L 432 208 L 400 208 L 400 240 L 432 240 L 432 272 L 400 272 L 400 304 L 432 304 L 432 336 L 400 336 L 400 368 L 432 368 L 432 400 L 400 400 L 400 432 L 368 432 L 368 400 L 336 400 L 336 432 L 304 432 L 304 400 L 272 400 L 272 432 L 80 432 L 80 80 z M 304 400 L 336 400 L 336 368 L 304 368 L 304 400 z M 304 368 L 304 336 L 272 336 L 272 368 L 304 368 z M 304 336 L 336 336 L 336 304 L 304 304 L 304 336 z M 304 304 L 304 272 L 272 272 L 272 304 L 304 304 z M 304 272 L 336 272 L 336 240 L 304 240 L 304 272 z M 304 240 L 304 208 L 272 208 L 272 240 L 304 240 z M 304 208 L 336 208 L 336 176 L 304 176 L 304 208 z M 304 176 L 304 144 L 272 144 L 272 176 L 304 176 z M 304 144 L 336 144 L 336 112 L 304 112 L 304 144 z M 336 144 L 336 176 L 368 176 L 368 144 L 336 144 z M 368 144 L 400 144 L 400 112 L 368 112 L 368 144 z M 368 176 L 368 208 L 400 208 L 400 176 L 368 176 z M 368 208 L 336 208 L 336 240 L 368 240 L 368 208 z M 368 240 L 368 272 L 400 272 L 400 240 L 368 240 z M 368 272 L 336 272 L 336 304 L 368 304 L 368 272 z M 368 304 L 368 336 L 400 336 L 400 304 L 368 304 z M 368 336 L 336 336 L 336 368 L 368 368 L 368 336 z M 368 368 L 368 400 L 400 400 L 400 368 L 368 368 z "/>
    </symbol>

    <symbol id="box-sizing-settings" viewBox="0 0 512 512">
      <path d="M 48 48 L 48 64 L 48 464 L 464 464 L 464 48 L 48 48 z M 80 80 L 255 80 A 12 12 0 0 0 248 83 L 214 117 A 12 12 0 0 0 231 134 L 240 125 L 240 240 L 272 240 L 272 125 L 281 134 A 12 12 0 0 0 298 134 A 12 12 0 0 0 298 117 L 264 83 A 12 12 0 0 0 257 80 L 432 80 L 432 255 A 12 12 0 0 0 429 248 L 395 214 A 12 12 0 1 0 378 231 L 387 240 L 272 240 L 272 272 L 387 272 L 378 281 A 12 12 0 0 0 378 298 A 12 12 0 0 0 395 298 L 429 264 A 12 12 0 0 0 432 257 L 432 432 L 257 432 A 12 12 0 0 0 264 429 L 298 395 A 12 12 0 0 0 281 378 L 272 387 L 272 272 L 240 272 L 240 387 L 231 378 A 12 12 0 0 0 214 378 A 12 12 0 0 0 214 395 L 248 429 A 12 12 0 0 0 255 432 L 80 432 L 80 80 z M 240 272 L 240 240 L 125 240 L 134 231 A 12 12 0 0 0 134 214 A 12 12 0 0 0 125 210 A 12 12 0 0 0 117 214 L 83.1 248 A 12 12 0 0 0 83.1 264 L 117 298 A 12 12 0 0 0 134 281 L 125 272 L 240 272 z " />

    </symbol>

    <symbol id="box-sizing-off" viewBox="0 0 512 512">
      <path d="M 48 48 L 48 64 L 48 464 L 464 464 L 464 48 L 48 48 z M 80 80 L 255 80 A 12 12 0 0 0 248 83 L 214 117 A 12 12 0 0 0 231 134 L 256 109 L 281 134 A 12 12 0 0 0 298 134 A 12 12 0 0 0 298 117 L 264 83 A 12 12 0 0 0 257 80 L 432 80 L 432 255 A 12 12 0 0 0 429 248 L 395 214 A 12 12 0 1 0 378 231 L 403 256 L 378 281 A 12 12 0 0 0 378 298 A 12 12 0 0 0 395 298 L 429 264 A 12 12 0 0 0 432 257 L 432 432 L 257 432 A 12 12 0 0 0 264 429 L 298 395 A 12 12 0 0 0 281 378 L 256 403 L 231 378 A 12 12 0 0 0 214 378 A 12 12 0 0 0 214 395 L 248 429 A 12 12 0 0 0 255 432 L 80 432 L 80 80 z M 125 210 A 12 12 0 0 0 117 214 L 83.1 248 A 12 12 0 0 0 83.1 264 L 117 298 A 12 12 0 0 0 134 281 L 109 256 L 134 231 A 12 12 0 0 0 134 214 A 12 12 0 0 0 125 210 z "/>
    </symbol>

    
    <symbol id="box-sizing-on" viewBox="0 0 512 512">
      <path d="M 222 5.91 A 12 12 0 0 0 214 9.44 A 12 12 0 0 0 210 18.4 A 12 12 0 0 0 214 26.4 L 248 60.9 A 12 12 0 0 0 264 60.9 L 298 26.4 A 12 12 0 0 0 281 9.44 L 256 34.4 L 231 9.44 A 12 12 0 0 0 222 5.91 z M 64 64 L 64 80 L 64 448 L 255 448 A 12 12 0 0 0 248 451 L 214 485 A 12 12 0 0 0 231 502 L 256 477 L 281 502 A 12 12 0 0 0 298 502 A 12 12 0 0 0 302 493 A 12 12 0 0 0 298 485 L 264 451 A 12 12 0 0 0 257 448 L 448 448 L 448 257 A 12 12 0 0 0 451 264 L 485 298 A 12 12 0 0 0 502 281 L 477 256 L 502 231 A 12 12 0 0 0 502 214 A 12 12 0 0 0 493 210 A 12 12 0 0 0 485 214 L 451 248 A 12 12 0 0 0 448 255 L 448 64 L 64 64 z M 96 96 L 416 96 L 416 416 L 96 416 L 96 96 z M 18.2 209 A 12 12 0 0 0 9.94 230 L 34.9 255 L 9.94 280 A 12 12 0 0 0 9.94 297 A 12 12 0 0 0 18.9 301 A 12 12 0 0 0 26.9 297 L 60.9 263 A 12 12 0 0 0 60.9 247 L 26.9 213 A 12 12 0 0 0 18.2 209 z "/>
    </symbol>

    <symbol id="z-index-settings" viewBox="0 0 448 512">
       <path d="M107.31 36.69a16 16 0 0 0-22.62 0l-80 96C-5.35 142.74 1.78 160 16 160h48v304a16 16 0 0 0 16 16h32a16 16 0 0 0 16-16V160h48c14.21 0 21.39-17.24 11.31-27.31zM444.1 438.86L361 301.71c-11.09-18.28-38.81-18.28-49.9 0l-83.2 137.15c-11.08 18.28 2.77 41.14 24.95 41.14h166.3c22.18 0 36.03-22.86 24.95-41.14zM264 224h144a24 24 0 0 0 24-24V56a24 24 0 0 0-24-24H264a24 24 0 0 0-24 24v144a24 24 0 0 0 24 24z" />
    </symbol>

    <symbol id="transform-settings" viewBox="0 0 512 512">
      <path d="M 127 0.111 C 90.8 0.135 54.7 16.8 30.9 48.4 L 25.1 56.1 C -14.9 109 -4.36 184 48 223 L 167 312 A 38.1 38.1 0 0 0 181 347 A 38.1 38.1 0 0 0 234 340 A 38.1 38.1 0 0 0 227 287 A 38.1 38.1 0 0 0 189 281 L 71.5 193 C 34.9 166 27.5 114 55.1 78.2 L 60 70.6 C 87.3 34.4 139 27 176 54.2 L 202 74.2 A 19.1 19.1 0 0 0 225 43.8 L 198 23.9 C 177 7.85 152 0.0953 127 0.111 z M 384 1.01 C 348 0.802 312 17.2 289 48.3 L 200 167 A 38.1 38.1 0 0 0 165 181 A 38.1 38.1 0 0 0 172 234 A 38.1 38.1 0 0 0 225 227 A 38.1 38.1 0 0 0 231 189 L 319 71.6 C 346 35.1 398 27.7 434 55.1 L 441 60.2 C 477 87.5 485 139 457 176 L 438 202 A 19 19 0 0 0 468 225 L 488 198 C 528 146 517 71 463 31.2 L 456 25.3 C 434 9.05 409 1.15 384 1.01 z M 308 158 A 38.1 38.1 0 0 0 278 172 A 38.1 38.1 0 0 0 284 224 A 38.1 38.1 0 0 0 322 230 L 440 319 C 477 346 484 397 457 433 L 451 441 C 423 478 373 485 335 458 L 309 437 A 19.4 19.4 0 0 0 286 468 L 313 487 C 366 528 441 517 481 463 L 487 457 C 527 403 516 328 463 288 L 345 199 A 38.1 38.1 0 0 0 329 164 A 38.1 38.1 0 0 0 308 158 z M 317 270 A 38.1 38.1 0 0 0 288 284 A 38.1 38.1 0 0 0 282 322 L 193 441 C 166 477 115 484 78.8 457 L 71 451 C 34.9 423 26.8 373 54.6 335 L 74.8 310 A 19.4 19.4 0 1 0 44.3 286 L 24.3 313 C -15.9 366 -5.12 441 48.3 482 L 55.8 487 C 109 527 184 517 224 463 L 313 345 A 38.1 38.1 0 0 0 348 330 A 38.1 38.1 0 0 0 340 278 A 38.1 38.1 0 0 0 317 270 z "/>
    </symbol>
    
    <symbol id="transaction-settings" viewBox="0 0 512 512">
      <path d="M 447 16.6 C 421 16.6 399 38.3 399 64.6 C 399 66 399 67.3 399 68.7 C 292 114 243 144 224 176 C 213 193 212 211 217 225 C 223 239 232 250 239 260 C 247 270 254 279 256 286 C 259 293 259 298 253 308 C 241 328 197 361 92 408 C 84.3 402 75 399 65 399 C 38.7 399 17 421 17 447 C 17 473 38.7 495 65 495 C 91.3 495 113 473 113 447 C 113 443 112 439 111 435 C 214 389 261 357 280 325 C 291 308 291 290 286 275 C 281 261 272 250 264 240 C 257 230 250 221 248 214 C 245 207 245 203 251 193 C 263 174 307 142 412 97.7 C 421 107 434 113 447 113 C 473 113 495 90.9 495 64.6 C 495 38.3 473 16.6 447 16.6 z M 64 47.8 A 16 16 0 0 0 52.9 52.5 A 16 16 0 0 0 52.6 52.8 A 16 16 0 0 0 48.2 66.6 L 48.2 96.7 A 16 16 0 0 0 80.2 96.7 L 80.2 80 L 96.1 80 A 16 16 0 0 0 96.1 48 L 66.8 48 A 16 16 0 0 0 64 47.8 z M 160 48 A 16 16 0 0 0 160 80 L 224 80 A 16 16 0 0 0 224 48 L 160 48 z M 288 48 A 16 16 0 0 0 288 80 L 352 80 A 16 16 0 0 0 352 48 L 288 48 z M 447 48.6 C 456 48.6 463 55.6 463 64.6 C 463 73.6 456 80.6 447 80.6 C 438 80.6 431 73.6 431 64.6 C 431 55.6 438 48.6 447 48.6 z M 64 144 A 16 16 0 0 0 48.2 161 L 48.2 224 A 16 16 0 0 0 80.2 224 L 80.2 161 A 16 16 0 0 0 64 144 z M 447 144 A 16 16 0 0 0 431 160 L 431 224 A 16 16 0 0 0 463 224 L 463 160 A 16 16 0 0 0 447 144 z M 64 272 A 16 16 0 0 0 48.2 288 L 48.2 352 A 16 16 0 0 0 80.2 352 L 80.2 288 A 16 16 0 0 0 64 272 z M 447 272 A 16 16 0 0 0 431 288 L 431 352 A 16 16 0 0 0 463 352 L 463 288 A 16 16 0 0 0 447 272 z M 447 399 A 16 16 0 0 0 431 416 L 431 432 L 416 432 A 16 16 0 0 0 416 464 L 447 464 A 16 16 0 0 0 463 448 L 463 416 A 16 16 0 0 0 447 399 z M 65 431 C 74 431 81 438 81 447 C 81 456 74 463 65 463 C 56 463 49 456 49 447 C 49 438 56 431 65 431 z M 160 432 A 16 16 0 0 0 160 464 L 224 464 A 16 16 0 0 0 224 432 L 160 432 z M 288 432 A 16 16 0 0 0 288 464 L 352 464 A 16 16 0 0 0 352 432 L 288 432 z "/>
    </symbol>
    
    <symbol id="flex-settings" viewBox="0 0 512 512">
      <path d="m 448,47.8 a -16,16 0 0 1 0,0 -16,16 0 0 1 11,4.6 -16,16 0 0 1 0,0.4 -16,16 0 0 1 5,13.8 V 96 a -16,16 0 0 1 -32,0 V 80 h -16 a -16,16 0 0 1 0,-32 h 29 a -16,16 0 0 1 3,-0.2 z M 352,48 a -16,16 0 0 1 0,32 h -64 a -16,16 0 0 1 0,-32 z m -128,0 a -16,16 0 0 1 0,32 h -64 a -16,16 0 0 1 0,-32 z M 95.8,48 a -16,16 0 0 1 0,32 h -16 v 16 a -16,16 0 0 1 -32,0 V 64 a -16,16 0 0 1 16,-16 z M 448,144 a -16,16 0 0 1 0,0 -16,16 0 0 1 16,16 v 64 a -16,16 0 0 1 -32,0 v -64 a -16,16 0 0 1 16,-16 z m -384.2,0 a -16,16 0 0 1 16,16 v 64 a -16,16 0 0 1 -32,0 v -64 a -16,16 0 0 1 16,-16 z M 355,210 c 3,0 6,2 8,4 l 34,34 c 4,4 4,12 0,16 l -34,34 c -5,5 -12,5 -17,0 -5,-5 -5,-12 0,-17 l 9,-9 H 112 v -32 h 243 l -9,-9 c -5,-5 -5,-12 0,-17 2,-3 6,-4 9,-4 z m 93,62 a -16,16 0 0 1 0,0 -16,16 0 0 1 16,16 v 64 a -16,16 0 0 1 -32,0 v -64 a -16,16 0 0 1 16,-16 z m -384.2,0 a -16,16 0 0 1 16,16 v 64 a -16,16 0 0 1 -32,0 v -64 a -16,16 0 0 1 16,-16 z M 448,400 a -16,16 0 0 1 0,0 -16,16 0 0 1 16,16 v 32 a -16,16 0 0 1 -16,16 h -32 a -16,16 0 0 1 0,-32 h 16 v -16 a -16,16 0 0 1 16,-16 z m -384.2,0 a -16,16 0 0 1 16,16 v 16 h 16 a -16,16 0 0 1 0,32 h -32 a -16,16 0 0 1 -16,-16 v -32 a -16,16 0 0 1 16,-16 z M 352,432 a -16,16 0 0 1 0,32 h -64 a -16,16 0 0 1 0,-32 z m -128,0 a -16,16 0 0 1 0,32 h -64 a -16,16 0 0 1 0,-32 z" />
    </symbol>
    
    <symbol id="font-weight" viewBox="0 0 512 512">
      <path d="M 110,28 C 93.6,28 80.9,40.7 80.9,56.7 V 240 c 0,8 3.1,15 8.4,20 L 279,450 c 12,12 30,12 41,0 L 503,267 c 12,-11 12,-29 0,-41 L 313,36.4 C 308,31.1 301,28 293,28 Z m 58,42 c 9,0.1 19,3.4 27,10 18,15 20,42 5,61 -15,18 -43,21 -60,5 C 122,130 119,104 135,85.5 143,75.2 155,70 168,70 Z M 52.1,94.9 9.8,145 c -7,9 -10.494,20 -9.687,31 L 23.1,444 C 25,467 46.4,484 70,483 L 130,477 18.4,236 c -6.3,-13 -6.9,-30 -2,-43 z m 0.1,83.1 -8.7,24 c -2.5,7 -2.1,15 0.9,21 l 7.8,18 v -1 z m 228.8,0 c 8,1 13,3 20,7 4,3 10,6 17,12 l 47,49 c 3,3 6,4 10,5 5,1 8,1 11,-2 6,-6 2,-16 -10,-28 -3,-3 -5,-6 -10,-8 l 6,-7 14,13 c 6,6 9,13 10,22 1,8 -1,14 -8,20 -4,5 -10,7 -18,7 -8,-1 -14,-3 -19,-8 3,9 4,18 3,28 -3,10 -8,18 -15,25 -9,9 -19,15 -29,19 -14,4 -26,3 -35,-6 -13,-14 -15,-32 -6,-56 6,-14 17,-31 35,-52 l -9,-9 c -8,-8 -17,-13 -27,-14 -10,-2 -20,1 -28,9 -12,11 -17,24 -16,37 4,-4 8,-7 13,-7 5,0 8,1 12,6 4,5 4,8 4,12 0,4 -2,6 -5,10 -7,6 -15,6 -22,-1 -8,-8 -11,-19 -8,-32 2,-12 7,-22 16,-31 14,-13 30,-20 47,-20 z m 29,45 c -12,13 -21,26 -26,41 -4,17 -1,31 10,43 6,6 13,9 21,8 8,-1 15,-4 21,-9 8,-8 12,-19 11,-31 -1,-10 -6,-20 -14,-28 z M 72.2,284 158,467 c 1,3 3,6 5,8 8,9 21,12 33,6 l 24,-12 26,-11 z" />
    </symbol>

    <symbol id="justify-end-settings" viewBox="0 0 512 512">
      <path d="M 447 47.8 A 16 16 0 0 0 445 48 L 416 48 A 16 16 0 0 0 416 80 L 432 80 L 432 96 A 16 16 0 0 0 464 96 L 464 66.6 A 16 16 0 0 0 459 52.8 A 16 16 0 0 0 459 52.4 A 16 16 0 0 0 448 47.8 A 16 16 0 0 0 447 47.8 z M 448 144 A 16 16 0 0 0 432 160 L 432 224 A 16 16 0 0 0 464 224 L 464 160 A 16 16 0 0 0 448 144 z M 63.8 208 A 16 16 0 0 0 47.8 224 L 47.8 288 A 16 16 0 0 0 79.8 288 L 79.8 272 L 355 272 L 346 281 C 341 286 341 293 346 298 C 351 303 358 303 363 298 L 397 264 C 401 260 401 252 397 248 L 363 214 C 361 212 358 210 355 210 C 352 210 348 211 346 214 C 341 219 341 226 346 231 L 355 240 L 79.8 240 L 79.8 224 A 16 16 0 0 0 63.8 208 z M 448 272 A 16 16 0 0 0 432 288 L 432 352 A 16 16 0 0 0 464 352 L 464 288 A 16 16 0 0 0 448 272 z M 448 400 A 16 16 0 0 0 432 416 L 432 432 L 416 432 A 16 16 0 0 0 416 464 L 448 464 A 16 16 0 0 0 464 448 L 464 416 A 16 16 0 0 0 448 400 z " />
    </symbol>

    <symbol id="justify-start-settings" viewBox="0 0 512 512">
      <path d="m 64.9,464 a 16,16 0 0 0 2,0 h 29 a 16,16 0 0 0 0,-32 h -16 v -16 a 16,16 0 0 0 -32,0 v 29 a 16,16 0 0 0 5,14 16,16 0 0 0 11,5 16,16 0 0 0 1,0 z m -1,-96 a 16,16 0 0 0 16,-16 v -64 a 16,16 0 0 0 -32,0 v 64 a 16,16 0 0 0 16,16 z M 448,304 a 16,16 0 0 0 16,-16 v -64 a 16,16 0 0 0 -32,0 v 16 H 157 l 9,-9 c 5,-5 5,-12 0,-17 -5,-5 -12,-5 -17,0 l -34,34 c -4,4 -4,12 0,16 l 34,34 c 2,2 5,4 8,4 3,0 7,-1 9,-4 5,-5 5,-12 0,-17 l -9,-9 h 275 v 16 a 16,16 0 0 0 16,16 z M 63.9,240 a 16,16 0 0 0 16,-16 v -64 a 16,16 0 0 0 -32,0 v 64 a 16,16 0 0 0 16,16 z m 0,-128 a 16,16 0 0 0 16,-16.1 v -16 h 16 a 16,16 0 0 0 0,-32 h -32 a 16,16 0 0 0 -16,16 v 32 a 16,16 0 0 0 16,16.1 z" />
    </symbol>

    <symbol id="justify-stretch-settings" viewBox="0 0 512 512">
      <path d="M 447 47.8 A 16 16 0 0 0 445 48 L 416 48 A 16 16 0 0 0 416 80 L 432 80 L 432 96 A 16 16 0 0 0 464 96 L 464 66.6 A 16 16 0 0 0 459 52.8 A 16 16 0 0 0 459 52.4 A 16 16 0 0 0 448 47.8 A 16 16 0 0 0 447 47.8 z M 63.8 48 A 16 16 0 0 0 47.8 64 L 47.8 96 A 16 16 0 0 0 79.8 96 L 79.8 80 L 95.8 80 A 16 16 0 0 0 95.8 48 L 63.8 48 z M 160 48 A 16 16 0 0 0 160 80 L 224 80 A 16 16 0 0 0 224 48 L 160 48 A 16 16 0 0 0 160 48 z M 288 48 A 16 16 0 0 0 288 80 L 352 80 A 16 16 0 0 0 352 48 L 288 48 A 16 16 0 0 0 288 48 z M 63.8 144 A 16 16 0 0 0 47.8 160 L 47.8 224 A 16 16 0 0 0 79.8 224 L 79.8 160 A 16 16 0 0 0 63.8 144 z M 448 144 A 16 16 0 0 0 432 160 L 432 224 A 16 16 0 0 0 464 224 L 464 160 A 16 16 0 0 0 448 144 z M 157 210 C 154 210 151 212 149 214 L 115 248 C 111 252 111 260 115 264 L 149 298 C 154 303 161 303 166 298 C 171 293 171 286 166 281 L 157 272 L 240 272 L 240 240 L 157 240 L 166 231 C 171 226 171 219 166 214 C 164 211 160 210 157 210 z M 355 210 C 352 210 348 211 346 214 C 341 219 341 226 346 231 L 355 240 L 272 240 L 272 272 L 355 272 L 346 281 C 341 286 341 293 346 298 C 351 303 358 303 363 298 L 397 264 C 401 260 401 252 397 248 L 363 214 C 361 212 358 210 355 210 z M 63.8 272 A 16 16 0 0 0 47.8 288 L 47.8 352 A 16 16 0 0 0 79.8 352 L 79.8 288 A 16 16 0 0 0 63.8 272 z M 448 272 A 16 16 0 0 0 432 288 L 432 352 A 16 16 0 0 0 464 352 L 464 288 A 16 16 0 0 0 448 272 z M 63.8 400 A 16 16 0 0 0 47.8 416 L 47.8 448 A 16 16 0 0 0 63.8 464 L 95.8 464 A 16 16 0 0 0 95.8 432 L 79.8 432 L 79.8 416 A 16 16 0 0 0 63.8 400 z M 448 400 A 16 16 0 0 0 432 416 L 432 432 L 416 432 A 16 16 0 0 0 416 464 L 448 464 A 16 16 0 0 0 464 448 L 464 416 A 16 16 0 0 0 448 400 z M 160 432 A 16 16 0 0 0 160 464 L 224 464 A 16 16 0 0 0 224 432 L 160 432 A 16 16 0 0 0 160 432 z M 288 432 A 16 16 0 0 0 288 464 L 352 464 A 16 16 0 0 0 352 432 L 288 432 A 16 16 0 0 0 288 432 z " />
    </symbol>
    
    <symbol id="justify-center-settings" viewBox="0 0 512 512">
      <path d="m 464,63.9 a 16,16 0 0 0 -16,-16 h -32 a 16,16 0 0 0 0,32 h 16 v 16 a 16,16 0 0 0 16,16.1 16,16 0 0 0 16,-16.1 z m 0,96.1 a 16,16 0 0 0 -32,0 v 64 a 16,16 0 0 0 16,16 16,16 0 0 0 16,-16 z m 0,128 a 16,16 0 0 0 -32,0 v 64 a 16,16 0 0 0 16,16 16,16 0 0 0 16,-16 z m 0,128 a 16,16 0 0 0 -32,0 v 16 h -16 a 16,16 0 0 0 0,32 h 32 a 16,16 0 0 0 16,-16 z M 400,240 h -83 l 9,-9 c 5,-5 5,-12 0,-17 -5,-5 -12,-5 -17,0 l -34,34 c -4,4 -4,12 0,16 l 34,34 c 2,2 5,4 8,4 3,0 7,-1 9,-4 5,-5 5,-12 0,-17 l -9,-9 h 83 z M 368,63.8 A 16,16 0 0 0 352,47.9 h -64 a 16,16 0 0 0 0,32 h 64 a 16,16 0 0 0 16,-16.1 z m 0,384.2 a 16,16 0 0 0 -16,-16 h -64 a 16,16 0 0 0 0,32 h 64 a 16,16 0 0 0 16,-16 z M 240,63.8 A 16,16 0 0 0 224,47.9 h -64 a 16,16 0 0 0 0,32 h 64 a 16,16 0 0 0 16,-16.1 z m 0,192.2 c 0,-3 -1,-6 -3,-8 l -34,-34 c -5,-5 -12,-5 -17,0 -5,5 -5,12 0,17 l 9,9 h -83 v 32 h 83 l -9,9 c -5,5 -5,12 0,17 2,3 6,4 9,4 3,0 6,-2 8,-4 l 34,-34 c 2,-2 3,-5 3,-8 z m 0,192 a 16,16 0 0 0 -16,-16 h -64 a 16,16 0 0 0 0,32 h 64 a 16,16 0 0 0 16,-16 z M 112,63.8 A 16,16 0 0 0 95.9,47.9 h -32 a 16,16 0 0 0 -16,16 v 32 a 16,16 0 0 0 16,16.1 16,16 0 0 0 16,-16.1 v -16 h 16 A 16,16 0 0 0 112,63.8 Z M 112,448 A 16,16 0 0 0 95.9,432 h -16 v -16 a 16,16 0 0 0 -32,0 v 29 a 16,16 0 0 0 5,14 16,16 0 0 0 11,5 16,16 0 0 0 1,0 16,16 0 0 0 2,0 h 29 A 16,16 0 0 0 112,448 Z M 79.9,160 a 16,16 0 0 0 -32,0 v 64 a 16,16 0 0 0 16,16 16,16 0 0 0 16,-16 z m 0,128 a 16,16 0 0 0 -32,0 v 64 a 16,16 0 0 0 16,16 16,16 0 0 0 16,-16 z" />
    </symbol>

    <symbol id="justify-baseline-settings" viewBox="0 0 512 512">
      <path d="M 384,240 H 205 l 9,-9 c 5,-5 5,-12 0,-17 -2,-3 -6,-4 -9,-4 -3,0 -6,2 -8,4 l -34,34 c -2,2 -3,5 -3,8 0,3 1,6 3,8 l 34,34 c 5,5 12,5 17,0 5,-5 5,-12 0,-17 l -9,-9 H 384 Z M 224,63.9 A 16,16 0 0 0 208,48 h -64 a 16,16 0 0 0 -16,16 16,16 0 0 0 16,16.1 h 64 a 16,16 0 0 0 16,-16.2 z m 0,384.1 a 16,16 0 0 0 -16,-16 h -64 a 16,16 0 0 0 -16,16 16,16 0 0 0 16,16 h 64 a 16,16 0 0 0 16,-16 z M 128,160 c 0,-9 -7,-16 -16,-16 -9,0 -15.9,7 -15.9,16 v 192 c 0,9 6.9,16 15.9,16 9,0 16,-7 16,-16 z M 96.1,63.9 A 16,16 0 0 0 80.1,48 H 48 A 16,16 0 0 0 32,64 v 32.1 a 16,16 0 0 0 32.1,0 v -16 h 16 a 16,16 0 0 0 16,-16.2 z m 0,384.1 a 16,16 0 0 0 -16,-16 h -16 V 416 A 16,16 0 0 0 48,400 16,16 0 0 0 32,416 v 32 a 16,16 0 0 0 16,16 h 32.1 a 16,16 0 0 0 16,-16 z M 64.1,160 A 16,16 0 0 0 48,144 16,16 0 0 0 32,160 v 64 a 16,16 0 0 0 32.1,0 z m 0,128 A 16,16 0 0 0 48,272 16,16 0 0 0 32,288 v 64 a 16,16 0 0 0 32.1,0 z" />
    </symbol>

    <symbol id="justify-space-between-settings" viewBox="0 0 512 512">
      <path d="M 447 47.8 A 16 16 0 0 0 445 48 L 416 48 A 16 16 0 0 0 416 80 L 432 80 L 432 96 A 16 16 0 0 0 464 96 L 464 66.6 A 16 16 0 0 0 459 52.8 A 16 16 0 0 0 459 52.4 A 16 16 0 0 0 448 47.8 A 16 16 0 0 0 447 47.8 z M 63.8 48 A 16 16 0 0 0 47.8 64 L 47.8 96 A 16 16 0 0 0 79.8 96 L 79.8 80 L 95.8 80 A 16 16 0 0 0 95.8 48 L 63.8 48 z M 160 48 A 16 16 0 0 0 160 80 L 224 80 A 16 16 0 0 0 224 48 L 160 48 A 16 16 0 0 0 160 48 z M 288 48 A 16 16 0 0 0 288 80 L 352 80 A 16 16 0 0 0 352 48 L 288 48 A 16 16 0 0 0 288 48 z M 63.8 144 A 16 16 0 0 0 47.8 160 L 47.8 224 A 16 16 0 0 0 79.8 224 L 79.8 160 A 16 16 0 0 0 63.8 144 z M 448 144 A 16 16 0 0 0 432 160 L 432 224 A 16 16 0 0 0 464 224 L 464 160 A 16 16 0 0 0 448 144 z M 256 208 A 16 16 0 0 0 240 224 L 240 288 A 16 16 0 0 0 272 288 L 272 224 A 16 16 0 0 0 256 208 z M 157 210 C 154 210 151 212 149 214 L 115 248 C 111 252 111 260 115 264 L 149 298 C 154 303 161 303 166 298 C 171 293 171 286 166 281 L 157 272 L 212 272 L 212 240 L 157 240 L 166 231 C 171 226 171 219 166 214 C 164 211 160 210 157 210 z M 355 210 C 352 210 348 211 346 214 C 341 219 341 226 346 231 L 355 240 L 302 240 L 302 272 L 355 272 L 346 281 C 341 286 341 293 346 298 C 351 303 358 303 363 298 L 397 264 C 401 260 401 252 397 248 L 363 214 C 361 212 358 210 355 210 z M 63.8 272 A 16 16 0 0 0 47.8 288 L 47.8 352 A 16 16 0 0 0 79.8 352 L 79.8 288 A 16 16 0 0 0 63.8 272 z M 448 272 A 16 16 0 0 0 432 288 L 432 352 A 16 16 0 0 0 464 352 L 464 288 A 16 16 0 0 0 448 272 z M 63.8 400 A 16 16 0 0 0 47.8 416 L 47.8 448 A 16 16 0 0 0 63.8 464 L 95.8 464 A 16 16 0 0 0 95.8 432 L 79.8 432 L 79.8 416 A 16 16 0 0 0 63.8 400 z M 448 400 A 16 16 0 0 0 432 416 L 432 432 L 416 432 A 16 16 0 0 0 416 464 L 448 464 A 16 16 0 0 0 464 448 L 464 416 A 16 16 0 0 0 448 400 z M 160 432 A 16 16 0 0 0 160 464 L 224 464 A 16 16 0 0 0 224 432 L 160 432 A 16 16 0 0 0 160 432 z M 288 432 A 16 16 0 0 0 288 464 L 352 464 A 16 16 0 0 0 352 432 L 288 432 A 16 16 0 0 0 288 432 z " />
    </symbol>

    <symbol id="justify-space-around-settings" viewBox="0 0 512 512">
      <path d="m 464,63.9 a 16,16 0 0 0 -16,-16 h -32 a 16,16 0 0 0 0,32 h 16 v 16 a 16,16 0 0 0 16,16.1 16,16 0 0 0 16,-16.1 z m 0,96.1 a 16,16 0 0 0 -32,0 v 64 a 16,16 0 0 0 16,16 16,16 0 0 0 16,-16 z m 0,128 a 16,16 0 0 0 -32,0 v 64 a 16,16 0 0 0 16,16 16,16 0 0 0 16,-16 z m 0,128 a 16,16 0 0 0 -32,0 v 16 h -16 a 16,16 0 0 0 0,32 h 32 a 16,16 0 0 0 16,-16 z M 400,224 a 16,16 0 0 0 -32,0 v 32 32 a 16,16 0 0 0 16,16 16,16 0 0 0 16,-16 z m -32,32 c 0,-3 -1,-6 -3,-8 l -34,-34 c -5,-5 -12,-5 -17,0 -5,5 -5,12 0,17 l 9,9 h -51 v 32 h 51 l -9,9 c -5,5 -5,12 0,17 2,3 6,4 9,4 3,0 6,-2 8,-4 l 34,-34 c 2,-2 3,-5 3,-8 z M 368,63.8 A 16,16 0 0 0 352,47.9 h -64 a 16,16 0 0 0 0,32 h 64 a 16,16 0 0 0 16,-16.1 z m 0,384.2 a 16,16 0 0 0 -16,-16 h -64 a 16,16 0 0 0 0,32 h 64 a 16,16 0 0 0 16,-16 z M 240,63.8 A 16,16 0 0 0 224,47.9 h -64 a 16,16 0 0 0 0,32 h 64 a 16,16 0 0 0 16,-16.1 z m 0,176.2 h -51 l 9,-9 c 5,-5 5,-12 0,-17 -5,-5 -12,-5 -17,0 l -34,34 c -2,2 -3,5 -3,8 0,3 1,6 3,8 l 34,34 c 2,2 5,4 8,4 3,0 7,-1 9,-4 5,-5 5,-12 0,-17 l -9,-9 h 51 z m -96,16 v -32 a 16,16 0 0 0 -32,0 v 64 a 16,16 0 0 0 16,16 16,16 0 0 0 16,-16 z m 96,192 a 16,16 0 0 0 -16,-16 h -64 a 16,16 0 0 0 0,32 h 64 a 16,16 0 0 0 16,-16 z M 112,63.8 A 16,16 0 0 0 95.9,47.9 h -32 a 16,16 0 0 0 -16,16 v 32 a 16,16 0 0 0 16,16.1 16,16 0 0 0 16,-16.1 v -16 h 16 A 16,16 0 0 0 112,63.8 Z M 112,448 A 16,16 0 0 0 95.9,432 h -16 v -16 a 16,16 0 0 0 -32,0 v 29 a 16,16 0 0 0 5,14 16,16 0 0 0 11,5 16,16 0 0 0 1,0 16,16 0 0 0 2,0 h 29 A 16,16 0 0 0 112,448 Z M 79.9,160 a 16,16 0 0 0 -32,0 v 64 a 16,16 0 0 0 16,16 16,16 0 0 0 16,-16 z m 0,128 a 16,16 0 0 0 -32,0 v 64 a 16,16 0 0 0 16,16 16,16 0 0 0 16,-16 z" />
    </symbol>

    <symbol id="justify-space-evenly-settings" viewBox="0 0 512 512">
      <path d="M 63.9 47.9 A 16 16 0 0 0 47.9 63.9 L 47.9 95.9 A 16 16 0 0 0 63.9 112 A 16 16 0 0 0 79.9 95.9 L 79.9 79.9 L 95.9 79.9 A 16 16 0 0 0 112 63.8 A 16 16 0 0 0 95.9 47.9 L 63.9 47.9 z M 160 47.9 A 16 16 0 0 0 160 79.9 L 224 79.9 A 16 16 0 0 0 240 63.8 A 16 16 0 0 0 224 47.9 L 160 47.9 z M 288 47.9 A 16 16 0 0 0 288 79.9 L 352 79.9 A 16 16 0 0 0 368 63.8 A 16 16 0 0 0 352 47.9 L 288 47.9 z M 416 47.9 A 16 16 0 0 0 416 79.9 L 432 79.9 L 432 95.9 A 16 16 0 0 0 448 112 A 16 16 0 0 0 464 95.9 L 464 63.9 A 16 16 0 0 0 448 47.9 L 416 47.9 z M 63.8 144 A 16 16 0 0 0 47.9 160 L 47.9 224 A 16 16 0 0 0 63.9 240 A 16 16 0 0 0 79.9 224 L 79.9 160 A 16 16 0 0 0 63.8 144 z M 448 144 A 16 16 0 0 0 432 160 L 432 224 A 16 16 0 0 0 448 240 A 16 16 0 0 0 464 224 L 464 160 A 16 16 0 0 0 448 144 z M 144 208 A 16 16 0 0 0 128 224 L 128 288 A 16 16 0 0 0 144 304 A 16 16 0 0 0 160 288 L 160 256 L 160 224 A 16 16 0 0 0 144 208 z M 160 256 C 160 259 161 262 163 264 L 197 298 C 199 300 202 302 205 302 C 208 302 212 301 214 298 C 219 293 219 286 214 281 L 205 272 L 256 272 L 307 272 L 298 281 C 293 286 293 293 298 298 C 300 301 304 302 307 302 C 310 302 313 300 315 298 L 349 264 C 351 262 352 259 352 256 C 352 253 351 250 349 248 L 315 214 C 310 209 303 209 298 214 C 293 219 293 226 298 231 L 307 240 L 256 240 L 205 240 L 214 231 C 219 226 219 219 214 214 C 209 209 202 209 197 214 L 163 248 C 161 250 160 253 160 256 z M 352 256 L 352 288 A 16 16 0 0 0 368 304 A 16 16 0 0 0 384 288 L 384 224 A 16 16 0 0 0 352 224 L 352 256 z M 63.8 272 A 16 16 0 0 0 47.9 288 L 47.9 352 A 16 16 0 0 0 63.9 368 A 16 16 0 0 0 79.9 352 L 79.9 288 A 16 16 0 0 0 63.8 272 z M 448 272 A 16 16 0 0 0 432 288 L 432 352 A 16 16 0 0 0 448 368 A 16 16 0 0 0 464 352 L 464 288 A 16 16 0 0 0 448 272 z M 63.8 400 A 16 16 0 0 0 47.9 416 L 47.9 445 A 16 16 0 0 0 52.9 459 A 16 16 0 0 0 63.9 464 A 16 16 0 0 0 64.9 464 A 16 16 0 0 0 66.9 464 L 95.9 464 A 16 16 0 0 0 112 448 A 16 16 0 0 0 95.9 432 L 79.9 432 L 79.9 416 A 16 16 0 0 0 63.8 400 z M 448 400 A 16 16 0 0 0 432 416 L 432 432 L 416 432 A 16 16 0 0 0 416 464 L 448 464 A 16 16 0 0 0 464 448 L 464 416 A 16 16 0 0 0 448 400 z M 160 432 A 16 16 0 0 0 160 464 L 224 464 A 16 16 0 0 0 240 448 A 16 16 0 0 0 224 432 L 160 432 z M 288 432 A 16 16 0 0 0 288 464 L 352 464 A 16 16 0 0 0 368 448 A 16 16 0 0 0 352 432 L 288 432 z " />
    </symbol>
    
    <symbol id="align-end-settings" viewBox="0 0 512 512">
      <path d="m 464,447 a 16,16 0 0 0 0,-2 v -29 a 16,16 0 0 0 -32,0 v 16 h -16 a 16,16 0 0 0 0,32 h 29 a 16,16 0 0 0 14,-5 16,16 0 0 0 0,0 16,16 0 0 0 5,-11 16,16 0 0 0 0,-1 z m -96,1 a 16,16 0 0 0 -16,-16 h -64 a 16,16 0 0 0 0,32 h 64 a 16,16 0 0 0 16,-16 z M 304,63.7 a 16,16 0 0 0 -16,-16 h -64 a 16,16 0 0 0 0,32 h 16 V 355 l -9,-9 c -5,-5 -12,-5 -17,0 -5,5 -5,12 0,17 l 34,34 c 4,4 12,4 16,0 l 34,-34 c 2,-2 4,-5 4,-8 0,-3 -1,-7 -4,-9 -5,-5 -12,-5 -17,0 l -9,9 V 79.7 h 16 a 16,16 0 0 0 16,-16 z M 240,448 a 16,16 0 0 0 -16,-16 h -64 a 16,16 0 0 0 0,32 h 64 a 16,16 0 0 0 16,-16 z m -128,0 A 16,16 0 0 0 95.9,432 h -16 v -16 a 16,16 0 0 0 -32,0 v 32 a 16,16 0 0 0 16,16 h 32 A 16,16 0 0 0 112,448 Z" />
    </symbol>

    <symbol id="align-start-settings" viewBox="0 0 512 512">
      <path d="m 47.8,65 a 16,16 0 0 0 0,2 v 29 a 16,16 0 0 0 32,0 V 80 h 16 a 16,16 0 0 0 0,-32 h -29 a 16,16 0 0 0 -14,5 16,16 0 0 0 -5,11 16,16 0 0 0 0,1 z M 144,64 a 16,16 0 0 0 16,16 h 64 a 16,16 0 0 0 0,-32 h -64 a 16,16 0 0 0 -16,16 z m 64,384 a 16,16 0 0 0 16,16 h 64 a 16,16 0 0 0 0,-32 H 272 V 157 l 9,9 c 5,5 12,5 17,0 5,-5 5,-12 0,-17 l -34,-34 c -4,-4 -12,-4 -16,0 l -34,34 c -2,2 -4,5 -4,8 0,3 1,7 4,9 5,5 12,5 17,0 l 9,-9 v 275 h -16 a 16,16 0 0 0 -16,16 z M 272,64 a 16,16 0 0 0 16,16 h 64 a 16,16 0 0 0 0,-32 h -64 a 16,16 0 0 0 -16,16 z m 128,0 a 16,16 0 0 0 16,16 h 16 v 16 a 16,16 0 0 0 32,0 V 64 A 16,16 0 0 0 448,48 h -32 a 16,16 0 0 0 -16,16 z" />
    </symbol>

    <symbol id="align-stretch-settings" viewBox="0 0 512 512">
      <path d="m 464,447 a 16,16 0 0 0 0,-2 v -29 a 16,16 0 0 0 -32,0 v 16 h -16 a 16,16 0 0 0 0,32 h 29 a 16,16 0 0 0 14,-5 16,16 0 0 0 0,0 16,16 0 0 0 5,-11 16,16 0 0 0 0,-1 z m 0,-383.3 a 16,16 0 0 0 -16,-16 h -32 a 16,16 0 0 0 0,32 h 16 v 16 a 16,16 0 0 0 32,0 z m 0,96.3 a 16,16 0 0 0 -32,0 v 64 a 16,16 0 0 0 32,0 z m 0,128 a 16,16 0 0 0 -32,0 v 64 a 16,16 0 0 0 32,0 z M 368,63.7 a 16,16 0 0 0 -16,-16 h -64 a 16,16 0 0 0 0,32 h 64 a 16,16 0 0 0 16,-16 z m 0,384.3 a 16,16 0 0 0 -16,-16 h -64 a 16,16 0 0 0 0,32 h 64 a 16,16 0 0 0 16,-16 z M 302,157 c 0,-3 -2,-6 -4,-8 l -34,-34 c -4,-4 -12,-4 -16,0 l -34,34 c -5,5 -5,12 0,17 5,5 12,5 17,0 l 9,-9 v 83 h 32 v -83 l 9,9 c 5,5 12,5 17,0 3,-2 4,-6 4,-9 z m 0,198 c 0,-3 -1,-7 -4,-9 -5,-5 -12,-5 -17,0 l -9,9 v -83 h -32 v 83 l -9,-9 c -5,-5 -12,-5 -17,0 -5,5 -5,12 0,17 l 34,34 c 4,4 12,4 16,0 l 34,-34 c 2,-2 4,-5 4,-8 z M 240,63.7 a 16,16 0 0 0 -16,-16 h -64 a 16,16 0 0 0 0,32 h 64 a 16,16 0 0 0 16,-16 z m 0,384.3 a 16,16 0 0 0 -16,-16 h -64 a 16,16 0 0 0 0,32 h 64 a 16,16 0 0 0 16,-16 z M 112,63.7 a 16,16 0 0 0 -16.1,-16 h -32 a 16,16 0 0 0 -16,16 v 32 a 16,16 0 0 0 32,0 v -16 h 16 A 16,16 0 0 0 112,63.7 Z M 112,448 A 16,16 0 0 0 95.9,432 h -16 v -16 a 16,16 0 0 0 -32,0 v 32 a 16,16 0 0 0 16,16 h 32 A 16,16 0 0 0 112,448 Z M 79.9,160 a 16,16 0 0 0 -32,0 v 64 a 16,16 0 0 0 32,0 z m 0,128 a 16,16 0 0 0 -32,0 v 64 a 16,16 0 0 0 32,0 z" />
    </symbol>

    <symbol id="align-center-settings" viewBox="0 0 512 512">
      <path d="M 63.9 47.7 A 16 16 0 0 0 47.9 63.7 L 47.9 95.7 A 16 16 0 0 0 79.9 95.7 L 79.9 79.7 L 95.9 79.7 A 16 16 0 0 0 112 63.7 A 16 16 0 0 0 95.9 47.7 L 63.9 47.7 z M 160 47.7 A 16 16 0 0 0 160 79.7 L 224 79.7 A 16 16 0 0 0 240 63.7 A 16 16 0 0 0 224 47.7 L 160 47.7 z M 288 47.7 A 16 16 0 0 0 288 79.7 L 352 79.7 A 16 16 0 0 0 368 63.7 A 16 16 0 0 0 352 47.7 L 288 47.7 z M 416 47.7 A 16 16 0 0 0 416 79.7 L 432 79.7 L 432 95.7 A 16 16 0 0 0 464 95.7 L 464 63.7 A 16 16 0 0 0 448 47.7 L 416 47.7 z M 240 112 L 240 195 L 231 186 C 226 181 219 181 214 186 C 209 191 209 198 214 203 L 248 237 C 252 241 260 241 264 237 L 298 203 C 300 201 302 198 302 195 C 302 192 301 188 298 186 C 293 181 286 181 281 186 L 272 195 L 272 112 L 240 112 z M 63.8 144 A 16 16 0 0 0 47.9 160 L 47.9 224 A 16 16 0 0 0 79.9 224 L 79.9 160 A 16 16 0 0 0 63.8 144 z M 448 144 A 16 16 0 0 0 432 160 L 432 224 A 16 16 0 0 0 464 224 L 464 160 A 16 16 0 0 0 448 144 z M 63.8 272 A 16 16 0 0 0 47.9 288 L 47.9 352 A 16 16 0 0 0 79.9 352 L 79.9 288 A 16 16 0 0 0 63.8 272 z M 256 272 C 253 272 250 273 248 275 L 214 309 C 209 314 209 321 214 326 C 219 331 226 331 231 326 L 240 317 L 240 400 L 272 400 L 272 317 L 281 326 C 286 331 293 331 298 326 C 301 324 302 320 302 317 C 302 314 300 311 298 309 L 264 275 C 262 273 259 272 256 272 z M 448 272 A 16 16 0 0 0 432 288 L 432 352 A 16 16 0 0 0 464 352 L 464 288 A 16 16 0 0 0 448 272 z M 63.8 400 A 16 16 0 0 0 47.9 416 L 47.9 448 A 16 16 0 0 0 63.9 464 L 95.9 464 A 16 16 0 0 0 112 448 A 16 16 0 0 0 95.9 432 L 79.9 432 L 79.9 416 A 16 16 0 0 0 63.8 400 z M 448 400 A 16 16 0 0 0 432 416 L 432 432 L 416 432 A 16 16 0 0 0 416 464 L 445 464 A 16 16 0 0 0 459 459 A 16 16 0 0 0 464 448 A 16 16 0 0 0 464 447 A 16 16 0 0 0 464 445 L 464 416 A 16 16 0 0 0 448 400 z M 160 432 A 16 16 0 0 0 160 464 L 224 464 A 16 16 0 0 0 240 448 A 16 16 0 0 0 224 432 L 160 432 z M 288 432 A 16 16 0 0 0 288 464 L 352 464 A 16 16 0 0 0 368 448 A 16 16 0 0 0 352 432 L 288 432 z " />
    </symbol>

    <symbol id="align-baseline-settings" viewBox="0 0 512 512">
      <path d="M 240 112 L 240 291 L 231 282 C 226 277 219 277 214 282 C 211 284 210 288 210 291 C 210 294 212 297 214 299 L 248 333 C 250 335 253 336 256 336 C 259 336 262 335 264 333 L 298 299 C 303 294 303 287 298 282 C 293 277 286 277 281 282 L 272 291 L 272 112 L 240 112 z M 63.7 272 A 16 16 0 0 0 47.8 288 L 47.8 352 A 16 16 0 0 0 63.8 368 A 16 16 0 0 0 79.8 352 L 79.8 288 A 16 16 0 0 0 63.7 272 z M 448 272 A 16 16 0 0 0 432 288 L 432 352 A 16 16 0 0 0 448 368 A 16 16 0 0 0 464 352 L 464 288 A 16 16 0 0 0 448 272 z M 160 368 C 151 368 144 375 144 384 C 144 393 151 400 160 400 L 352 400 C 361 400 368 393 368 384 C 368 375 361 368 352 368 L 160 368 z M 63.7 400 A 16 16 0 0 0 47.8 416 L 47.8 448 A 16 16 0 0 0 63.8 464 L 95.8 464 A 16 16 0 0 0 95.8 432 L 79.8 432 L 79.8 416 A 16 16 0 0 0 63.7 400 z M 448 400 A 16 16 0 0 0 432 416 L 432 432 L 416 432 A 16 16 0 0 0 400 448 A 16 16 0 0 0 416 464 L 448 464 A 16 16 0 0 0 464 448 L 464 416 A 16 16 0 0 0 448 400 z M 160 432 A 16 16 0 0 0 144 448 A 16 16 0 0 0 160 464 L 224 464 A 16 16 0 0 0 224 432 L 160 432 z M 288 432 A 16 16 0 0 0 272 448 A 16 16 0 0 0 288 464 L 352 464 A 16 16 0 0 0 352 432 L 288 432 z " />
    </symbol>

    <symbol id="align-space-between-settings" viewBox="0 0 512 512">
      <path d="m 464,447 a 16,16 0 0 0 0,-2 v -29 a 16,16 0 0 0 -32,0 v 16 h -16 a 16,16 0 0 0 0,32 h 29 a 16,16 0 0 0 14,-5 16,16 0 0 0 0,0 16,16 0 0 0 5,-11 16,16 0 0 0 0,-1 z m 0,-383.3 a 16,16 0 0 0 -16,-16 h -32 a 16,16 0 0 0 0,32 h 16 v 16 a 16,16 0 0 0 32,0 z m 0,96.3 a 16,16 0 0 0 -32,0 v 64 a 16,16 0 0 0 32,0 z m 0,128 a 16,16 0 0 0 -32,0 v 64 a 16,16 0 0 0 32,0 z M 368,63.7 a 16,16 0 0 0 -16,-16 h -64 a 16,16 0 0 0 0,32 h 64 a 16,16 0 0 0 16,-16 z m 0,384.3 a 16,16 0 0 0 -16,-16 h -64 a 16,16 0 0 0 0,32 h 64 a 16,16 0 0 0 16,-16 z M 304,256 a 16,16 0 0 0 -16,-16 h -64 a 16,16 0 0 0 0,32 h 64 a 16,16 0 0 0 16,-16 z m -2,-99 c 0,-3 -2,-6 -4,-8 l -34,-34 c -4,-4 -12,-4 -16,0 l -34,34 c -5,5 -5,12 0,17 5,5 12,5 17,0 l 9,-9 v 55 h 32 v -55 l 9,9 c 5,5 12,5 17,0 3,-2 4,-6 4,-9 z m 0,198 c 0,-3 -1,-7 -4,-9 -5,-5 -12,-5 -17,0 l -9,9 v -53 h -32 v 53 l -9,-9 c -5,-5 -12,-5 -17,0 -5,5 -5,12 0,17 l 34,34 c 4,4 12,4 16,0 l 34,-34 c 2,-2 4,-5 4,-8 z M 240,63.7 a 16,16 0 0 0 -16,-16 h -64 a 16,16 0 0 0 0,32 h 64 a 16,16 0 0 0 16,-16 z m 0,384.3 a 16,16 0 0 0 -16,-16 h -64 a 16,16 0 0 0 0,32 h 64 a 16,16 0 0 0 16,-16 z M 112,63.7 a 16,16 0 0 0 -16.1,-16 h -32 a 16,16 0 0 0 -16,16 v 32 a 16,16 0 0 0 32,0 v -16 h 16 A 16,16 0 0 0 112,63.7 Z M 112,448 A 16,16 0 0 0 95.9,432 h -16 v -16 a 16,16 0 0 0 -32,0 v 32 a 16,16 0 0 0 16,16 h 32 A 16,16 0 0 0 112,448 Z M 79.9,160 a 16,16 0 0 0 -32,0 v 64 a 16,16 0 0 0 32,0 z m 0,128 a 16,16 0 0 0 -32,0 v 64 a 16,16 0 0 0 32,0 z" />
    </symbol>

    <symbol id="align-space-around-settings" viewBox="0 0 512 512">
      <path d="M 63.9 47.7 A 16 16 0 0 0 47.9 63.7 L 47.9 95.7 A 16 16 0 0 0 79.9 95.7 L 79.9 79.7 L 95.9 79.7 A 16 16 0 0 0 112 63.7 A 16 16 0 0 0 95.9 47.7 L 63.9 47.7 z M 160 47.7 A 16 16 0 0 0 160 79.7 L 224 79.7 A 16 16 0 0 0 240 63.7 A 16 16 0 0 0 224 47.7 L 160 47.7 z M 288 47.7 A 16 16 0 0 0 288 79.7 L 352 79.7 A 16 16 0 0 0 368 63.7 A 16 16 0 0 0 352 47.7 L 288 47.7 z M 416 47.7 A 16 16 0 0 0 416 79.7 L 432 79.7 L 432 95.7 A 16 16 0 0 0 464 95.7 L 464 63.7 A 16 16 0 0 0 448 47.7 L 416 47.7 z M 224 112 A 16 16 0 0 0 224 144 L 256 144 L 288 144 A 16 16 0 0 0 304 128 A 16 16 0 0 0 288 112 L 224 112 z M 256 144 C 253 144 250 145 248 147 L 214 181 C 209 186 209 193 214 198 C 219 203 226 203 231 198 L 240 189 L 240 240 L 272 240 L 272 189 L 281 198 C 286 203 293 203 298 198 C 301 196 302 192 302 189 C 302 186 300 183 298 181 L 264 147 C 262 145 259 144 256 144 z M 63.8 144 A 16 16 0 0 0 47.9 160 L 47.9 224 A 16 16 0 0 0 79.9 224 L 79.9 160 A 16 16 0 0 0 63.8 144 z M 448 144 A 16 16 0 0 0 432 160 L 432 224 A 16 16 0 0 0 464 224 L 464 160 A 16 16 0 0 0 448 144 z M 63.8 272 A 16 16 0 0 0 47.9 288 L 47.9 352 A 16 16 0 0 0 79.9 352 L 79.9 288 A 16 16 0 0 0 63.8 272 z M 240 272 L 240 323 L 231 314 C 226 309 219 309 214 314 C 209 319 209 326 214 331 L 248 365 C 250 367 253 368 256 368 C 259 368 262 367 264 365 L 298 331 C 300 329 302 326 302 323 C 302 320 301 316 298 314 C 293 309 286 309 281 314 L 272 323 L 272 272 L 240 272 z M 256 368 L 224 368 A 16 16 0 0 0 224 400 L 288 400 A 16 16 0 0 0 304 384 A 16 16 0 0 0 288 368 L 256 368 z M 448 272 A 16 16 0 0 0 432 288 L 432 352 A 16 16 0 0 0 464 352 L 464 288 A 16 16 0 0 0 448 272 z M 63.8 400 A 16 16 0 0 0 47.9 416 L 47.9 448 A 16 16 0 0 0 63.9 464 L 95.9 464 A 16 16 0 0 0 112 448 A 16 16 0 0 0 95.9 432 L 79.9 432 L 79.9 416 A 16 16 0 0 0 63.8 400 z M 448 400 A 16 16 0 0 0 432 416 L 432 432 L 416 432 A 16 16 0 0 0 416 464 L 445 464 A 16 16 0 0 0 459 459 A 16 16 0 0 0 464 448 A 16 16 0 0 0 464 447 A 16 16 0 0 0 464 445 L 464 416 A 16 16 0 0 0 448 400 z M 160 432 A 16 16 0 0 0 160 464 L 224 464 A 16 16 0 0 0 240 448 A 16 16 0 0 0 224 432 L 160 432 z M 288 432 A 16 16 0 0 0 288 464 L 352 464 A 16 16 0 0 0 368 448 A 16 16 0 0 0 352 432 L 288 432 z " />
    </symbol>

    <symbol id="align-space-evenly-settings" viewBox="0 0 512 512">
      <path d="M 464,64 A 16,16 0 0 0 448,48 h -32 a 16,16 0 0 0 -16,16 16,16 0 0 0 16,16 h 16 v 16 a 16,16 0 0 0 16,16 16,16 0 0 0 16,-16 z m 0,96 a 16,16 0 0 0 -32,0 v 64 a 16,16 0 0 0 16,16 16,16 0 0 0 16,-16 z m 0,128 a 16,16 0 0 0 -32,0 v 64 a 16,16 0 0 0 16,16 16,16 0 0 0 16,-16 z m 0,128 a 16,16 0 0 0 -32,0 v 16 h -16 a 16,16 0 0 0 -16,16 16,16 0 0 0 16,16 h 32 a 16,16 0 0 0 16,-16 z M 368,63.9 A 16,16 0 0 0 352,48 h -64 a 16,16 0 0 0 -16,16 16,16 0 0 0 16,16 h 64 a 16,16 0 0 0 16,-16.1 z m 0,384.1 a 16,16 0 0 0 -16,-16 h -64 a 16,16 0 0 0 -16,16 16,16 0 0 0 16,16 h 64 a 16,16 0 0 0 16,-16 z M 304,144 a 16,16 0 0 0 -16,-16 h -64 a 16,16 0 0 0 -16,16 16,16 0 0 0 16,16 h 32 32 a 16,16 0 0 0 16,-16 z m -48,16 c -3,0 -6,1 -8,3 l -34,34 c -2,2 -4,5 -4,8 0,3 1,7 4,9 5,5 12,5 17,0 l 9,-9 v 51 51 l -9,-9 c -5,-5 -12,-5 -17,0 -3,2 -4,6 -4,9 0,3 2,6 4,8 l 34,34 c 2,2 5,3 8,3 3,0 6,-1 8,-3 l 34,-34 c 5,-5 5,-12 0,-17 -5,-5 -12,-5 -17,0 l -9,9 v -51 -51 l 9,9 c 5,5 12,5 17,0 5,-5 5,-12 0,-17 l -34,-34 c -2,-2 -5,-3 -8,-3 z m 0,192 h -32 a 16,16 0 0 0 -16,16 16,16 0 0 0 16,16 h 64 a 16,16 0 0 0 0,-32 z M 240,63.9 A 16,16 0 0 0 224,48 h -64 a 16,16 0 0 0 -16,16 16,16 0 0 0 16,16 h 64 a 16,16 0 0 0 16,-16.1 z m 0,384.1 a 16,16 0 0 0 -16,-16 h -64 a 16,16 0 0 0 -16,16 16,16 0 0 0 16,16 h 64 a 16,16 0 0 0 16,-16 z M 112,63.9 A 16,16 0 0 0 95.8,48 h -29 a 16,16 0 0 0 -14,5 16,16 0 0 0 -5,11 16,16 0 0 0 0,1 16,16 0 0 0 0,2 v 29 a 16,16 0 0 0 16,16 16,16 0 0 0 16,-16 V 80 h 16 A 16,16 0 0 0 112,63.9 Z M 112,448 A 16,16 0 0 0 95.8,432 h -16 v -16 a 16,16 0 0 0 -32,0 v 32 a 16,16 0 0 0 16,16 h 32 A 16,16 0 0 0 112,448 Z M 79.8,160 a 16,16 0 0 0 -32,0 v 64 a 16,16 0 0 0 16,16 16,16 0 0 0 16,-16 z m 0,128 a 16,16 0 0 0 -32,0 v 64 a 16,16 0 0 0 16,16 16,16 0 0 0 16,-16 z" />
    </symbol>

    <symbol id="safe-settings" viewBox="0 0 512 512">
      <path d="M 234 87.5 A 16 16 0 0 0 232 87.7 C 220 89.3 209 92.2 198 96.2 A 16 16 0 0 0 188 117 A 16 16 0 0 0 209 126 C 218 123 227 121 236 119 A 16 16 0 0 0 250 101 A 16 16 0 0 0 234 87.5 z M 298 91.7 A 16 16 0 0 0 282 103 A 16 16 0 0 0 293 123 C 303 126 311 129 320 134 A 16 16 0 0 0 342 127 A 16 16 0 0 0 335 105 C 324 99.9 313 95.5 302 92.3 A 16 16 0 0 0 298 91.7 z M 149 129 A 16 16 0 0 0 138 133 C 130 142 122 151 116 160 A 16 16 0 0 0 120 182 A 16 16 0 0 0 142 178 C 147 170 154 163 160 156 A 16 16 0 0 0 161 134 A 16 16 0 0 0 149 129 z M 376 144 A 16 16 0 0 0 366 147 A 16 16 0 0 0 364 170 C 370 177 375 185 379 194 A 16 16 0 0 0 401 201 A 16 16 0 0 0 408 180 C 403 169 396 159 389 150 A 16 16 0 0 0 376 144 z M 104 212 A 16 16 0 0 0 88.8 225 C 86.7 237 85.8 249 86.1 260 A 16 16 0 0 0 102 276 A 16 16 0 0 0 118 259 C 118 250 119 240 120 231 A 16 16 0 0 0 107 212 A 16 16 0 0 0 104 212 z M 410 232 A 16 16 0 0 0 409 232 A 16 16 0 0 0 394 249 C 394 251 394 254 394 256 C 394 266 393 275 391 284 A 16 16 0 0 0 403 303 A 16 16 0 0 0 422 291 C 425 280 426 269 426 258 A 16 16 0 0 0 426 256 A 16 16 0 0 0 426 255 C 426 253 426 250 426 247 A 16 16 0 0 0 410 232 z M 117 306 A 16 16 0 0 0 110 307 A 16 16 0 0 0 102 329 C 107 339 113 349 121 359 A 16 16 0 0 0 143 362 A 16 16 0 0 0 146 339 C 140 332 135 324 131 315 A 16 16 0 0 0 117 306 z M 381 330 A 16 16 0 0 0 368 337 C 362 344 356 351 349 358 A 16 16 0 0 0 348 381 A 16 16 0 0 0 371 382 C 379 374 387 365 394 355 A 16 16 0 0 0 390 333 A 16 16 0 0 0 381 330 z M 181 375 A 16 16 0 0 0 167 383 A 16 16 0 0 0 173 405 C 184 410 195 415 206 418 A 16 16 0 0 0 226 408 A 16 16 0 0 0 215 388 C 206 385 197 381 189 377 A 16 16 0 0 0 181 375 z M 305 386 A 16 16 0 0 0 300 387 C 291 390 282 392 272 393 A 16 16 0 0 0 258 411 A 16 16 0 0 0 276 425 C 287 424 299 421 310 417 A 16 16 0 0 0 320 397 A 16 16 0 0 0 305 386 z "/>
    </symbol>

    <symbol id="first-settings" viewBox="0 0 512 512">
      <path d="M 158 103 A 15.8 16.1 0.531 0 0 145 111 A 15.8 16.1 0.531 0 0 143 116 A 15.8 16.1 0.531 0 0 131 111 A 15.8 16.1 0.531 0 0 115 127 L 116 155 A 15.8 16.1 0.531 0 0 132 171 A 15.8 16.1 0.531 0 0 147 155 L 147 130 A 15.8 16.1 0.531 0 0 150 133 L 174 147 A 15.8 16.1 0.531 0 0 196 141 A 15.8 16.1 0.531 0 0 198 133 A 15.8 16.1 0.531 0 0 190 119 L 166 105 A 15.8 16.1 0.531 0 0 158 103 z M 230 144 A 15.8 16.1 0.531 0 0 216 152 A 15.8 16.1 0.531 0 0 222 174 L 245 188 A 15.8 16.1 0.531 0 0 267 182 A 15.8 16.1 0.531 0 0 269 175 A 15.8 16.1 0.531 0 0 261 160 L 238 146 A 15.8 16.1 0.531 0 0 230 144 z M 301 186 A 15.8 16.1 0.531 0 0 287 194 A 15.8 16.1 0.531 0 0 293 216 L 316 230 A 15.8 16.1 0.531 0 0 338 224 A 15.8 16.1 0.531 0 0 340 216 A 15.8 16.1 0.531 0 0 332 202 L 309 188 A 15.8 16.1 0.531 0 0 301 186 z M 131 194 A 15.8 16.1 0.531 0 0 116 210 L 116 239 A 15.8 16.1 0.531 0 0 132 255 A 15.8 16.1 0.531 0 0 148 238 L 147 210 A 15.8 16.1 0.531 0 0 131 194 z M 371 227 A 15.8 16.1 0.531 0 0 358 235 A 15.8 16.1 0.531 0 0 356 243 L 356 243 A 15.8 16.1 0.531 0 0 350 266 A 15.8 16.1 0.531 0 0 372 271 L 387 262 A 15.8 16.1 0.531 0 0 395 248 A 15.8 16.1 0.531 0 0 387 234 L 380 230 A 15.8 16.1 0.531 0 0 371 227 z M 316 269 A 15.8 16.1 0.531 0 0 308 271 L 285 285 A 15.8 16.1 0.531 0 0 279 307 A 15.8 16.1 0.531 0 0 300 313 L 324 299 A 15.8 16.1 0.531 0 0 332 285 A 15.8 16.1 0.531 0 0 330 277 A 15.8 16.1 0.531 0 0 316 269 z M 131 278 A 15.8 16.1 0.531 0 0 116 293 L 116 321 A 15.8 16.1 0.531 0 0 132 337 A 15.8 16.1 0.531 0 0 148 322 L 147 294 A 15.8 16.1 0.531 0 0 131 278 z M 245 311 A 15.8 16.1 0.531 0 0 237 313 L 214 327 A 15.8 16.1 0.531 0 0 208 349 A 15.8 16.1 0.531 0 0 229 355 L 253 341 A 15.8 16.1 0.531 0 0 261 327 A 15.8 16.1 0.531 0 0 259 319 A 15.8 16.1 0.531 0 0 245 311 z M 174 353 A 15.8 16.1 0.531 0 0 166 355 L 144 368 A 15.8 16.1 0.531 0 0 132 361 A 15.8 16.1 0.531 0 0 116 377 L 116 393 A 15.8 16.1 0.531 0 0 132 410 A 15.8 16.1 0.531 0 0 147 398 A 15.8 16.1 0.531 0 0 158 397 L 182 382 A 15.8 16.1 0.531 0 0 190 369 A 15.8 16.1 0.531 0 0 188 361 A 15.8 16.1 0.531 0 0 174 353 z " />
    </symbol>

    <symbol id="last-settings" viewBox="0 0 512 512">
      <path d="m 353,103 a 16.1,15.8 89.5 0 1 13,8 16.1,15.8 89.5 0 1 2,5 16.1,15.8 89.5 0 1 12,-5 16.1,15.8 89.5 0 1 16,16 l -1,28 a 16.1,15.8 89.5 0 1 -16,16 16.1,15.8 89.5 0 1 -15,-16 v -25 a 16.1,15.8 89.5 0 1 -3,3 l -24,14 a 16.1,15.8 89.5 0 1 -22,-6 16.1,15.8 89.5 0 1 -2,-8 16.1,15.8 89.5 0 1 8,-14 l 24,-14 a 16.1,15.8 89.5 0 1 8,-2 z m -72,41 a 16.1,15.8 89.5 0 1 14,8 16.1,15.8 89.5 0 1 -6,22 l -23,14 a 16.1,15.8 89.5 0 1 -22,-6 16.1,15.8 89.5 0 1 -2,-7 16.1,15.8 89.5 0 1 8,-15 l 23,-14 a 16.1,15.8 89.5 0 1 8,-2 z m -71,42 a 16.1,15.8 89.5 0 1 14,8 16.1,15.8 89.5 0 1 -6,22 l -23,14 a 16.1,15.8 89.5 0 1 -22,-6 16.1,15.8 89.5 0 1 -2,-8 16.1,15.8 89.5 0 1 8,-14 l 23,-14 a 16.1,15.8 89.5 0 1 8,-2 z m 170,8 a 16.1,15.8 89.5 0 1 15,16 v 29 a 16.1,15.8 89.5 0 1 -16,16 16.1,15.8 89.5 0 1 -16,-17 l 1,-28 a 16.1,15.8 89.5 0 1 16,-16 z m -240,33 a 16.1,15.8 89.5 0 1 13,8 16.1,15.8 89.5 0 1 2,8 v 0 a 16.1,15.8 89.5 0 1 6,23 16.1,15.8 89.5 0 1 -22,5 l -15,-9 a 16.1,15.8 89.5 0 1 -8,-14 16.1,15.8 89.5 0 1 8,-14 l 7,-4 a 16.1,15.8 89.5 0 1 9,-3 z m 55,42 a 16.1,15.8 89.5 0 1 8,2 l 23,14 a 16.1,15.8 89.5 0 1 6,22 16.1,15.8 89.5 0 1 -21,6 l -24,-14 a 16.1,15.8 89.5 0 1 -8,-14 16.1,15.8 89.5 0 1 2,-8 16.1,15.8 89.5 0 1 14,-8 z m 185,9 a 16.1,15.8 89.5 0 1 15,15 v 28 a 16.1,15.8 89.5 0 1 -16,16 16.1,15.8 89.5 0 1 -16,-15 l 1,-28 a 16.1,15.8 89.5 0 1 16,-16 z m -114,33 a 16.1,15.8 89.5 0 1 8,2 l 23,14 a 16.1,15.8 89.5 0 1 6,22 16.1,15.8 89.5 0 1 -21,6 l -24,-14 a 16.1,15.8 89.5 0 1 -8,-14 16.1,15.8 89.5 0 1 2,-8 16.1,15.8 89.5 0 1 14,-8 z m 71,42 a 16.1,15.8 89.5 0 1 8,2 l 22,13 a 16.1,15.8 89.5 0 1 12,-7 16.1,15.8 89.5 0 1 16,16 v 16 a 16.1,15.8 89.5 0 1 -16,17 16.1,15.8 89.5 0 1 -15,-12 16.1,15.8 89.5 0 1 -11,-1 l -24,-15 a 16.1,15.8 89.5 0 1 -8,-13 16.1,15.8 89.5 0 1 2,-8 16.1,15.8 89.5 0 1 14,-8 z" />
    </symbol>

    <symbol id="empty-settings" viewBox="0 0 512 512">
      <path d="M 144 102 C 135 102 127 102 118 102 C 109 102 102 109 102 118 L 102 148 C 102 156 109 164 118 164 C 127 164 134 156 134 148 L 134 134 L 144 134 C 153 134 160 127 160 118 C 160 109 153 102 144 102 z M 198 102 C 190 102 182 109 182 118 C 182 127 190 134 198 134 L 234 134 C 243 134 250 127 250 118 C 250 109 243 102 234 102 L 198 102 z M 288 102 C 280 102 272 109 272 118 C 272 127 280 134 288 134 L 324 134 C 333 134 340 127 340 118 C 340 109 333 102 324 102 L 288 102 z M 378 102 C 370 102 362 109 362 118 C 362 126 369 133 377 134 L 377 139 C 377 148 384 155 393 155 C 402 155 409 148 409 139 L 409 118 C 409 109 402 102 393 102 L 378 102 z M 163 147 A 16 16 0 0 0 152 152 A 16 16 0 0 0 152 174 L 234 256 L 152 338 A 16 16 0 0 0 152 360 A 16 16 0 0 0 174 360 L 256 278 L 338 360 A 16 16 0 0 0 360 360 A 16 16 0 0 0 360 338 L 278 256 L 360 174 A 16 16 0 0 0 360 152 A 16 16 0 0 0 349 147 A 16 16 0 0 0 338 152 L 256 234 L 174 152 A 16 16 0 0 0 163 147 z M 393 177 C 384 177 377 185 377 193 L 377 229 C 377 238 384 245 393 245 C 402 245 409 238 409 229 L 409 193 C 409 185 402 177 393 177 z M 118 186 C 109 186 102 193 102 202 L 102 238 C 102 246 109 254 118 254 C 127 254 134 246 134 238 L 134 202 C 134 193 127 186 118 186 z M 393 267 C 384 267 377 275 377 283 L 377 319 C 377 328 384 335 393 335 C 402 335 409 328 409 319 L 409 283 C 409 275 402 267 393 267 z M 118 276 C 109 276 102 283 102 292 L 102 328 C 102 336 109 344 118 344 C 127 344 134 336 134 328 L 134 292 C 134 283 127 276 118 276 z M 393 357 C 384 357 377 365 377 373 L 377 377 L 377 377 C 368 377 361 384 361 393 C 361 402 368 409 377 409 L 393 409 C 402 409 409 402 409 393 L 409 373 C 409 365 402 357 393 357 z M 118 366 C 109 366 102 373 102 382 L 102 393 C 102 402 109 409 118 409 L 143 409 C 151 409 159 402 159 393 C 159 384 151 377 143 377 L 133 377 C 131 370 125 366 118 366 z M 197 377 C 188 377 181 384 181 393 C 181 402 188 409 197 409 L 233 409 C 241 409 249 402 249 393 C 249 384 241 377 233 377 L 197 377 z M 287 377 C 278 377 271 384 271 393 C 271 402 278 409 287 409 L 323 409 C 331 409 339 402 339 393 C 339 384 331 377 323 377 L 287 377 z " />
    </symbol>

  </defs>
</svg>
